<svg width="24" height="16" viewBox="0 0 24 16" fill="none" xmlns="http://www.w3.org/2000/svg">
<line x1="5.07126" y1="1.24095" x2="23.4713" y2="8.04221" stroke="black"/>
<line x1="20.7979" y1="7.5112" x2="20.7979" y2="13.5112" stroke="black"/>
<line x1="21.2979" y1="14.0112" x2="4.29791" y2="14.0112" stroke="black"/>
<line x1="10.4312" y1="3.12981" x2="10.4312" y2="1" stroke="black" stroke-width="2"/>
<path d="M9.65791 9.6795H8.90591V8.6475C8.90591 8.58083 8.89257 8.52883 8.86591 8.4915C8.84191 8.45416 8.81257 8.4355 8.77791 8.4355C8.74324 8.4355 8.71257 8.45416 8.68591 8.4915C8.66191 8.52883 8.64991 8.58083 8.64991 8.6475V9.6795H7.90991V8.6475C7.90991 8.5835 7.89657 8.53416 7.86991 8.4995C7.84591 8.46216 7.81524 8.4435 7.77791 8.4435C7.74324 8.4435 7.71391 8.46083 7.68991 8.4955C7.66591 8.53016 7.65391 8.58083 7.65391 8.6475V9.6795H6.91791V8.4275C6.91791 8.2195 6.99257 8.03816 7.14191 7.8835C7.29391 7.72616 7.47524 7.6475 7.68591 7.6475C7.80591 7.6475 7.91257 7.6715 8.00591 7.7195C8.10191 7.76483 8.19657 7.83416 8.28991 7.9275C8.37791 7.8395 8.46457 7.77283 8.54991 7.7275C8.65124 7.67416 8.75657 7.6475 8.86591 7.6475C9.11657 7.6475 9.31391 7.7355 9.45791 7.9115C9.59124 8.07416 9.65791 8.2835 9.65791 8.5395V9.6795ZM12.0617 9.6795H11.2977V8.7595C11.2977 8.67416 11.2724 8.5995 11.2217 8.5355C11.171 8.4715 11.103 8.4395 11.0177 8.4395C10.943 8.4395 10.8764 8.4675 10.8177 8.5235C10.7617 8.57683 10.7337 8.64083 10.7337 8.7155C10.7337 8.79283 10.759 8.8595 10.8097 8.9155C10.8604 8.9715 10.9244 8.9995 11.0017 8.9995C11.0764 8.9995 11.143 8.97816 11.2017 8.9355V9.7035C11.1804 9.70883 11.151 9.7115 11.1137 9.7115C11.0764 9.71416 11.0404 9.71683 11.0057 9.7195C10.979 9.72216 10.959 9.7235 10.9457 9.7235C10.6977 9.7235 10.475 9.61416 10.2777 9.3955C10.083 9.17416 9.98569 8.92616 9.98569 8.6515C9.98569 8.37416 10.087 8.13816 10.2897 7.9435C10.495 7.74616 10.7377 7.6475 11.0177 7.6475C11.303 7.6475 11.5484 7.7475 11.7537 7.9475C11.959 8.1475 12.0617 8.39016 12.0617 8.6755V9.6795ZM14.4479 9.4875C14.4479 9.78883 14.3373 10.0502 14.1159 10.2715C13.8946 10.4928 13.6319 10.6035 13.3279 10.6035C13.2853 10.6035 13.2346 10.5982 13.1759 10.5875C13.1173 10.5795 13.0439 10.5608 12.9559 10.5315V9.8515C13.0013 9.8755 13.0439 9.89416 13.0839 9.9075C13.1266 9.92083 13.1719 9.9275 13.2199 9.9275C13.3479 9.9275 13.4573 9.88483 13.5479 9.7995C13.6413 9.71683 13.6879 9.61283 13.6879 9.4875V8.6675C13.6879 8.57683 13.6653 8.50216 13.6199 8.4435C13.5746 8.38483 13.5066 8.3555 13.4159 8.3555C13.3466 8.3555 13.2839 8.3835 13.2279 8.4395C13.1746 8.49283 13.1479 8.5555 13.1479 8.6275C13.1479 8.70483 13.1733 8.77016 13.2239 8.8235C13.2746 8.87683 13.3386 8.9035 13.4159 8.9035C13.4666 8.9035 13.5159 8.8875 13.5639 8.8555V9.5435C13.5079 9.56216 13.4546 9.57683 13.4039 9.5875C13.3559 9.59816 13.3053 9.6035 13.2519 9.6035C12.9906 9.6035 12.7813 9.50883 12.6239 9.3195C12.4693 9.13016 12.3919 8.9035 12.3919 8.6395C12.3919 8.37016 12.4919 8.13816 12.6919 7.9435C12.8946 7.74616 13.1306 7.6475 13.3999 7.6475C13.6853 7.6475 13.9306 7.7475 14.1359 7.9475C14.3439 8.14483 14.4479 8.38483 14.4479 8.6675V9.4875ZM16.8428 8.6635L16.8388 8.8035H15.6708C15.6681 8.79283 15.6628 8.77283 15.6548 8.7435C15.6494 8.7115 15.6468 8.68216 15.6468 8.6555C15.6468 8.5835 15.6588 8.5155 15.6828 8.4515H16.0908C16.0774 8.38483 16.0481 8.3315 16.0028 8.2915C15.9574 8.2515 15.9014 8.2315 15.8348 8.2315C15.7281 8.2315 15.6468 8.27416 15.5908 8.3595C15.5348 8.44483 15.5068 8.54216 15.5068 8.6515C15.5068 8.76083 15.5321 8.85683 15.5828 8.9395C15.6441 9.03816 15.7254 9.0875 15.8268 9.0875C15.8721 9.0875 15.9108 9.07816 15.9428 9.0595C15.9774 9.04083 16.0134 9.01283 16.0508 8.9755L16.4788 9.4875C16.2814 9.64216 16.0601 9.7195 15.8148 9.7195C15.5241 9.7195 15.2774 9.6155 15.0748 9.4075C14.8721 9.1995 14.7708 8.95016 14.7708 8.6595C14.7708 8.3875 14.8734 8.1515 15.0788 7.9515C15.2868 7.74883 15.5281 7.6475 15.8028 7.6475C16.0828 7.6475 16.3254 7.75016 16.5308 7.9555C16.7388 8.15816 16.8428 8.39416 16.8428 8.6635Z" fill="#002487"/>
<rect x="3.29791" y="6.5112" width="3" height="8" fill="#002487"/>
<rect x="1.16458" y="13.9087" width="8.4" height="1.41987" fill="#002487"/>
<path d="M6.35789 6.79414L0.658324 6.79414L6.35789 2.79012L6.35789 6.79414Z" fill="#002487"/>
</svg>
