<svg width="425" height="76" viewBox="0 0 425 76" fill="none" xmlns="http://www.w3.org/2000/svg">
<g filter="url(#filter0_d)">
<rect x="6" y="2" width="413" height="64" fill="#0FA5AF"/>
<rect x="5" y="1" width="415" height="66" stroke="#0EA5AF" stroke-width="2" stroke-linecap="round" stroke-linejoin="round"/>
</g>
<g filter="url(#filter1_d)">
<path d="M93.7141 27.08C93.7141 28.776 93.1301 30.104 91.9621 31.064C90.9061 31.928 89.6021 32.36 88.0501 32.36H87.0661V28.064C87.4821 28.064 87.8261 27.976 88.0981 27.8C88.3701 27.624 88.5061 27.344 88.5061 26.96C88.5061 26.64 88.3941 26.368 88.1701 26.144C87.9621 25.904 87.6981 25.784 87.3781 25.784C87.0421 25.784 86.7701 25.928 86.5621 26.216C86.3701 26.488 86.2741 26.8 86.2741 27.152V38H81.3781V27.488C81.3781 25.792 81.9221 24.344 83.0101 23.144C84.1781 21.864 85.6661 21.224 87.4741 21.224C89.0901 21.224 90.5301 21.8 91.7941 22.952C93.0741 24.088 93.7141 25.464 93.7141 27.08ZM107.196 32C107.196 33.712 106.58 35.184 105.348 36.416C104.132 37.632 102.668 38.24 100.956 38.24C99.2595 38.24 97.8115 37.616 96.6115 36.368C95.4275 35.12 94.8355 33.648 94.8355 31.952C94.8355 30.272 95.4355 28.832 96.6355 27.632C97.8515 26.416 99.2915 25.808 100.956 25.808C102.652 25.808 104.116 26.416 105.348 27.632C106.58 28.848 107.196 30.304 107.196 32ZM102.708 32.024C102.708 31.56 102.54 31.168 102.204 30.848C101.868 30.528 101.46 30.368 100.98 30.368C100.564 30.368 100.196 30.52 99.8755 30.824C99.5555 31.128 99.3955 31.496 99.3955 31.928C99.3955 32.408 99.5475 32.824 99.8515 33.176C100.172 33.512 100.556 33.68 101.004 33.68C101.468 33.68 101.868 33.52 102.204 33.2C102.54 32.88 102.708 32.488 102.708 32.024ZM125.635 33.752C125.635 35 125.187 36.088 124.291 37.016C123.395 37.944 122.307 38.408 121.027 38.408C120.323 38.408 119.675 38.272 119.083 38C118.507 37.712 117.947 37.296 117.403 36.752C116.891 37.264 116.347 37.672 115.771 37.976C115.211 38.264 114.603 38.408 113.947 38.408C112.443 38.408 111.259 37.888 110.395 36.848C109.595 35.872 109.195 34.616 109.195 33.08V26.048H113.683V32.432C113.683 32.816 113.755 33.12 113.899 33.344C114.059 33.552 114.251 33.656 114.475 33.656C114.699 33.656 114.883 33.552 115.027 33.344C115.171 33.136 115.243 32.832 115.243 32.432V26.048H119.683V32.432C119.683 33.248 119.939 33.656 120.451 33.656C120.659 33.656 120.835 33.552 120.979 33.344C121.123 33.136 121.195 32.832 121.195 32.432V26.048H125.635V33.752ZM140.01 31.904L139.986 32.744H132.978C132.962 32.68 132.93 32.56 132.882 32.384C132.85 32.192 132.834 32.016 132.834 31.856C132.834 31.424 132.906 31.016 133.05 30.632H135.498C135.418 30.232 135.242 29.912 134.97 29.672C134.698 29.432 134.362 29.312 133.962 29.312C133.322 29.312 132.834 29.568 132.498 30.08C132.162 30.592 131.994 31.176 131.994 31.832C131.994 32.488 132.146 33.064 132.45 33.56C132.818 34.152 133.306 34.448 133.914 34.448C134.186 34.448 134.418 34.392 134.61 34.28C134.818 34.168 135.034 34 135.258 33.776L137.826 36.848C136.642 37.776 135.314 38.24 133.842 38.24C132.098 38.24 130.618 37.616 129.402 36.368C128.186 35.12 127.578 33.624 127.578 31.88C127.578 30.248 128.194 28.832 129.426 27.632C130.674 26.416 132.122 25.808 133.77 25.808C135.45 25.808 136.906 26.424 138.138 27.656C139.386 28.872 140.01 30.288 140.01 31.904ZM148.536 30.752C148.376 30.672 148.232 30.616 148.104 30.584C148.04 30.568 147.936 30.56 147.792 30.56C147.392 30.56 147.08 30.704 146.855 30.992C146.648 31.264 146.544 31.6 146.544 32V38H141.984V30.8C141.984 29.456 142.488 28.288 143.496 27.296C144.504 26.304 145.696 25.808 147.072 25.808C147.568 25.808 148.056 25.856 148.536 25.952V30.752ZM161.643 31.904L161.619 32.744H154.611C154.595 32.68 154.563 32.56 154.515 32.384C154.483 32.192 154.467 32.016 154.467 31.856C154.467 31.424 154.539 31.016 154.683 30.632H157.131C157.051 30.232 156.875 29.912 156.603 29.672C156.331 29.432 155.995 29.312 155.595 29.312C154.955 29.312 154.467 29.568 154.131 30.08C153.795 30.592 153.627 31.176 153.627 31.832C153.627 32.488 153.779 33.064 154.083 33.56C154.451 34.152 154.939 34.448 155.547 34.448C155.819 34.448 156.051 34.392 156.243 34.28C156.451 34.168 156.667 34 156.891 33.776L159.459 36.848C158.275 37.776 156.947 38.24 155.475 38.24C153.731 38.24 152.251 37.616 151.035 36.368C149.819 35.12 149.211 33.624 149.211 31.88C149.211 30.248 149.827 28.832 151.059 27.632C152.307 26.416 153.755 25.808 155.403 25.808C157.083 25.808 158.539 26.424 159.771 27.656C161.019 28.872 161.643 30.288 161.643 31.904ZM175.376 31.592C175.376 33.448 174.808 35.024 173.672 36.32C172.552 37.6 171.064 38.24 169.208 38.24C167.416 38.24 165.928 37.624 164.744 36.392C163.576 35.16 162.992 33.64 162.992 31.832C162.992 30.216 163.608 28.808 164.84 27.608C166.072 26.408 167.496 25.808 169.112 25.808C169.304 25.808 169.52 25.824 169.76 25.856C170 25.872 170.184 25.888 170.312 25.904V30.848C170.168 30.752 170.064 30.688 170 30.656C169.808 30.56 169.6 30.512 169.376 30.512C168.912 30.512 168.512 30.656 168.176 30.944C167.84 31.232 167.672 31.592 167.672 32.024C167.672 32.52 167.824 32.944 168.128 33.296C168.432 33.648 168.832 33.824 169.328 33.824C169.872 33.824 170.28 33.632 170.552 33.248C170.84 32.864 170.984 32.392 170.984 31.832V21.632H175.376V31.592ZM197.188 31.928C197.188 33.704 196.58 35.2 195.364 36.416C194.148 37.632 192.66 38.24 190.9 38.24C189.204 38.24 187.764 37.6 186.58 36.32C185.396 35.04 184.804 33.552 184.804 31.856V21.632H189.196V31.856C189.196 32.384 189.34 32.848 189.628 33.248C189.916 33.632 190.324 33.824 190.852 33.824C191.316 33.824 191.708 33.664 192.028 33.344C192.364 33.008 192.532 32.608 192.532 32.144C192.532 31.664 192.372 31.264 192.052 30.944C191.732 30.624 191.332 30.464 190.852 30.464C190.676 30.464 190.508 30.496 190.348 30.56C190.188 30.608 190.028 30.688 189.868 30.8V25.904C190.044 25.872 190.212 25.848 190.372 25.832C190.532 25.816 190.724 25.808 190.948 25.808C192.628 25.808 194.084 26.416 195.316 27.632C196.564 28.832 197.188 30.264 197.188 31.928ZM209.828 36.872C209.828 38.76 209.172 40.368 207.86 41.696C206.548 43.024 204.956 43.688 203.084 43.688C202.252 43.688 201.5 43.536 200.828 43.232V39.32C201.084 39.432 201.332 39.528 201.572 39.608C201.828 39.688 202.068 39.728 202.292 39.728C202.98 39.728 203.588 39.488 204.116 39.008C204.66 38.528 205.028 37.944 205.22 37.256C204.868 37.464 204.492 37.64 204.092 37.784C203.708 37.912 203.332 37.976 202.964 37.976C201.892 37.976 200.98 37.568 200.228 36.752C199.492 35.92 199.124 34.96 199.124 33.872V26.048H203.612V32.456C203.612 32.808 203.692 33.088 203.852 33.296C204.028 33.488 204.228 33.584 204.452 33.584C204.692 33.584 204.892 33.48 205.052 33.272C205.228 33.064 205.316 32.76 205.316 32.36V26.048H209.828V36.872ZM224.249 32.984C224.249 34.392 223.777 35.632 222.833 36.704C221.841 37.84 220.657 38.408 219.281 38.408C219.025 38.408 218.825 38.392 218.681 38.36C218.537 38.344 218.241 38.272 217.793 38.144V33.44C217.905 33.472 217.985 33.496 218.033 33.512C218.145 33.544 218.233 33.56 218.297 33.56C218.729 33.56 219.033 33.4 219.209 33.08C219.337 32.84 219.401 32.488 219.401 32.024V21.632H224.249V32.984ZM238.727 32C238.727 33.712 238.111 35.184 236.879 36.416C235.663 37.632 234.199 38.24 232.487 38.24C230.791 38.24 229.343 37.616 228.143 36.368C226.959 35.12 226.367 33.648 226.367 31.952C226.367 30.272 226.967 28.832 228.167 27.632C229.383 26.416 230.823 25.808 232.487 25.808C234.183 25.808 235.647 26.416 236.879 27.632C238.111 28.848 238.727 30.304 238.727 32ZM234.239 32.024C234.239 31.56 234.071 31.168 233.735 30.848C233.399 30.528 232.991 30.368 232.511 30.368C232.095 30.368 231.727 30.52 231.407 30.824C231.087 31.128 230.927 31.496 230.927 31.928C230.927 32.408 231.079 32.824 231.383 33.176C231.703 33.512 232.087 33.68 232.535 33.68C232.999 33.68 233.399 33.52 233.735 33.2C234.071 32.88 234.239 32.488 234.239 32.024ZM248.334 30.728C247.47 30.728 246.886 31.384 246.582 32.696C246.134 34.648 245.75 35.864 245.43 36.344C244.566 37.656 243.03 38.312 240.822 38.312H239.718V33.584C240.966 33.584 241.726 32.936 241.998 31.64C242.51 29.256 242.774 28.048 242.79 28.016C243.446 26.704 244.846 26.048 246.99 26.048H248.334V30.728ZM261.768 31.904L261.744 32.744H254.736C254.72 32.68 254.688 32.56 254.64 32.384C254.608 32.192 254.592 32.016 254.592 31.856C254.592 31.424 254.664 31.016 254.808 30.632H257.256C257.176 30.232 257 29.912 256.728 29.672C256.456 29.432 256.12 29.312 255.72 29.312C255.08 29.312 254.592 29.568 254.256 30.08C253.92 30.592 253.752 31.176 253.752 31.832C253.752 32.488 253.904 33.064 254.208 33.56C254.576 34.152 255.064 34.448 255.672 34.448C255.944 34.448 256.176 34.392 256.368 34.28C256.576 34.168 256.792 34 257.016 33.776L259.584 36.848C258.4 37.776 257.072 38.24 255.6 38.24C253.856 38.24 252.376 37.616 251.16 36.368C249.944 35.12 249.336 33.624 249.336 31.88C249.336 30.248 249.952 28.832 251.184 27.632C252.432 26.416 253.88 25.808 255.528 25.808C257.208 25.808 258.664 26.424 259.896 27.656C261.144 28.872 261.768 30.288 261.768 31.904ZM276.221 31.784C276.221 33.736 275.533 35.328 274.157 36.56C272.909 37.68 271.469 38.24 269.837 38.24C269.565 38.24 269.293 38.216 269.021 38.168V33.44C269.165 33.536 269.325 33.624 269.501 33.704C269.693 33.768 269.877 33.8 270.053 33.8C270.517 33.8 270.925 33.632 271.277 33.296C271.629 32.96 271.805 32.552 271.805 32.072C271.805 31.592 271.629 31.176 271.277 30.824C270.925 30.472 270.493 30.296 269.981 30.296C269.405 30.296 268.973 30.496 268.685 30.896C268.397 31.28 268.253 31.768 268.253 32.36V43.808H263.741V32.168C263.741 30.424 264.341 28.936 265.541 27.704C266.757 26.456 268.237 25.832 269.981 25.832C271.613 25.832 273.061 26.416 274.325 27.584C275.589 28.752 276.221 30.152 276.221 31.784ZM288.715 38H284.275V31.76C284.275 31.36 284.187 31.048 284.011 30.824C283.851 30.584 283.651 30.464 283.411 30.464C283.203 30.464 283.019 30.568 282.859 30.776C282.715 30.968 282.643 31.24 282.643 31.592V38H278.203V21.632H282.643V26.624C283.027 26.368 283.387 26.168 283.723 26.024C284.075 25.88 284.443 25.808 284.827 25.808C285.995 25.808 286.947 26.272 287.683 27.2C288.371 28.064 288.715 29.088 288.715 30.272V38ZM315.644 38H310.82V27.2C310.82 26.912 310.748 26.696 310.604 26.552C310.476 26.392 310.316 26.312 310.124 26.312C309.644 26.312 309.404 26.632 309.404 27.272V38H304.556V27.2C304.556 26.928 304.484 26.712 304.34 26.552C304.212 26.376 304.052 26.288 303.86 26.288C303.668 26.288 303.5 26.368 303.356 26.528C303.228 26.672 303.164 26.896 303.164 27.2V38H298.316V25.736C298.316 24.52 298.78 23.464 299.708 22.568C300.636 21.672 301.708 21.224 302.924 21.224C304.7 21.224 306.036 21.992 306.932 23.528C307.316 22.856 307.876 22.304 308.612 21.872C309.348 21.44 310.108 21.224 310.892 21.224C312.38 21.224 313.556 21.736 314.42 22.76C315.236 23.72 315.644 24.952 315.644 26.456V38ZM330.182 31.904L330.158 32.744H323.15C323.134 32.68 323.102 32.56 323.054 32.384C323.022 32.192 323.006 32.016 323.006 31.856C323.006 31.424 323.078 31.016 323.222 30.632H325.67C325.59 30.232 325.414 29.912 325.142 29.672C324.87 29.432 324.534 29.312 324.134 29.312C323.494 29.312 323.006 29.568 322.67 30.08C322.334 30.592 322.166 31.176 322.166 31.832C322.166 32.488 322.318 33.064 322.622 33.56C322.99 34.152 323.478 34.448 324.086 34.448C324.358 34.448 324.59 34.392 324.782 34.28C324.99 34.168 325.206 34 325.43 33.776L327.998 36.848C326.814 37.776 325.486 38.24 324.014 38.24C322.27 38.24 320.79 37.616 319.574 36.368C318.358 35.12 317.75 33.624 317.75 31.88C317.75 30.248 318.366 28.832 319.598 27.632C320.846 26.416 322.294 25.808 323.942 25.808C325.622 25.808 327.078 26.424 328.31 27.656C329.558 28.872 330.182 30.288 330.182 31.904ZM336.643 38H332.155V21.632H336.643V38ZM343.745 22.88C343.745 23.504 343.529 24.016 343.097 24.416C342.665 24.816 342.137 25.016 341.513 25.016C340.873 25.016 340.337 24.824 339.905 24.44C339.489 24.04 339.281 23.52 339.281 22.88C339.281 22.288 339.505 21.784 339.953 21.368C340.401 20.952 340.921 20.744 341.513 20.744C342.105 20.744 342.625 20.952 343.073 21.368C343.521 21.784 343.745 22.288 343.745 22.88ZM343.745 38H339.257V26.048H343.745V38Z" fill="#FEFEFE"/>
</g>
<defs>
<filter id="filter0_d" x="0" y="0" width="425" height="76" filterUnits="userSpaceOnUse" color-interpolation-filters="sRGB">
<feFlood flood-opacity="0" result="BackgroundImageFix"/>
<feColorMatrix in="SourceAlpha" type="matrix" values="0 0 0 0 0 0 0 0 0 0 0 0 0 0 0 0 0 0 127 0"/>
<feOffset dy="4"/>
<feGaussianBlur stdDeviation="2"/>
<feColorMatrix type="matrix" values="0 0 0 0 0 0 0 0 0 0 0 0 0 0 0 0 0 0 0.25 0"/>
<feBlend mode="normal" in2="BackgroundImageFix" result="effect1_dropShadow"/>
<feBlend mode="normal" in="SourceGraphic" in2="effect1_dropShadow" result="shape"/>
</filter>
<filter id="filter1_d" x="77.3781" y="20.744" width="270.367" height="31.064" filterUnits="userSpaceOnUse" color-interpolation-filters="sRGB">
<feFlood flood-opacity="0" result="BackgroundImageFix"/>
<feColorMatrix in="SourceAlpha" type="matrix" values="0 0 0 0 0 0 0 0 0 0 0 0 0 0 0 0 0 0 127 0"/>
<feOffset dy="4"/>
<feGaussianBlur stdDeviation="2"/>
<feColorMatrix type="matrix" values="0 0 0 0 0 0 0 0 0 0 0 0 0 0 0 0 0 0 0.25 0"/>
<feBlend mode="normal" in2="BackgroundImageFix" result="effect1_dropShadow"/>
<feBlend mode="normal" in="SourceGraphic" in2="effect1_dropShadow" result="shape"/>
</filter>
</defs>
</svg>
