<svg width="445" height="338" viewBox="0 0 445 338" fill="none" xmlns="http://www.w3.org/2000/svg">
<g filter="url(#filter0_d)">
<rect x="6" y="2" width="433" height="324" stroke="#002487" stroke-width="4"/>
</g>
<path d="M60.56 93.208C60.56 95.032 61.052 96.448 62.036 97.456C63.044 98.44 64.304 98.932 65.816 98.932C67.304 98.932 68.468 98.488 69.308 97.6C70.148 96.712 70.568 95.38 70.568 93.604H64.988V89.572H75.788V98.104C75.788 99.304 75.812 100.36 75.86 101.272C75.932 102.184 75.98 102.76 76.004 103H72.944C72.632 102.136 72.344 101.212 72.08 100.228C71.312 101.212 70.304 101.98 69.056 102.532C67.832 103.084 66.524 103.36 65.132 103.36H64.952C62.984 103.36 61.22 102.916 59.66 102.028C58.124 101.14 56.912 99.868 56.024 98.212C55.16 96.556 54.728 94.624 54.728 92.416V88.888C54.728 86.68 55.184 84.748 56.096 83.092C57.008 81.436 58.28 80.164 59.912 79.276C61.568 78.388 63.44 77.944 65.528 77.944H66.032C67.832 77.944 69.476 78.328 70.964 79.096C72.452 79.84 73.628 80.908 74.492 82.3C75.356 83.668 75.788 85.264 75.788 87.088H70.532C70.532 85.528 70.076 84.352 69.164 83.56C68.252 82.768 67.1 82.372 65.708 82.372C64.196 82.372 62.96 82.876 62 83.884C61.04 84.868 60.56 86.272 60.56 88.096V93.208ZM97.6119 96.124C97.6119 97.732 97.2279 99.088 96.4599 100.192C95.6919 101.272 94.6719 102.076 93.3999 102.604C92.1519 103.108 90.7839 103.36 89.2959 103.36H88.7199C87.0159 103.36 85.4799 103 84.1119 102.28C82.7439 101.56 81.6639 100.528 80.8719 99.184C80.1039 97.816 79.7199 96.196 79.7199 94.324V93.28C79.7199 91.432 80.1159 89.824 80.9079 88.456C81.6999 87.088 82.7679 86.044 84.1119 85.324C85.4799 84.604 87.0159 84.244 88.7199 84.244H89.2959C90.7839 84.244 92.1639 84.556 93.4359 85.18C94.7079 85.78 95.7279 86.668 96.4959 87.844C97.2639 88.996 97.6479 90.364 97.6479 91.948V94.684H85.0479V95.548C85.0479 96.748 85.3959 97.756 86.0919 98.572C86.8119 99.364 87.7839 99.76 89.0079 99.76C90.1119 99.76 90.9759 99.46 91.5999 98.86C92.2479 98.236 92.5719 97.324 92.5719 96.124H97.6119ZM88.7559 87.844C87.6999 87.844 86.8359 88.216 86.1639 88.96C85.5159 89.704 85.1439 90.652 85.0479 91.804H92.3199C92.3199 90.58 92.0319 89.62 91.4559 88.924C90.9039 88.204 90.0039 87.844 88.7559 87.844ZM106.071 87.304C107.583 85.264 109.539 84.244 111.939 84.244C113.811 84.244 115.347 84.748 116.547 85.756C117.771 86.764 118.383 88.228 118.383 90.148V103H113.127V91.3C113.127 90.364 112.851 89.596 112.299 88.996C111.771 88.372 111.087 88.06 110.247 88.06C109.311 88.06 108.507 88.42 107.835 89.14C107.163 89.836 106.827 90.688 106.827 91.696V103H101.571V84.604H105.495L106.071 87.304ZM140.116 96.124C140.116 97.732 139.732 99.088 138.964 100.192C138.196 101.272 137.176 102.076 135.904 102.604C134.656 103.108 133.288 103.36 131.8 103.36H131.224C129.52 103.36 127.984 103 126.616 102.28C125.248 101.56 124.168 100.528 123.376 99.184C122.608 97.816 122.224 96.196 122.224 94.324V93.28C122.224 91.432 122.62 89.824 123.412 88.456C124.204 87.088 125.272 86.044 126.616 85.324C127.984 84.604 129.52 84.244 131.224 84.244H131.8C133.288 84.244 134.668 84.556 135.94 85.18C137.212 85.78 138.232 86.668 139 87.844C139.768 88.996 140.152 90.364 140.152 91.948V94.684H127.552V95.548C127.552 96.748 127.9 97.756 128.596 98.572C129.316 99.364 130.288 99.76 131.512 99.76C132.616 99.76 133.48 99.46 134.104 98.86C134.752 98.236 135.076 97.324 135.076 96.124H140.116ZM131.26 87.844C130.204 87.844 129.34 88.216 128.668 88.96C128.02 89.704 127.648 90.652 127.552 91.804H134.824C134.824 90.58 134.536 89.62 133.96 88.924C133.408 88.204 132.508 87.844 131.26 87.844ZM154.407 90.904C154.407 90.16 154.203 89.524 153.795 88.996C153.387 88.444 152.739 88.168 151.851 88.168C151.011 88.168 150.363 88.504 149.907 89.176C149.475 89.824 149.259 90.64 149.259 91.624V103H144.075V84.604H147.963L148.611 87.304C148.707 87.04 148.947 86.668 149.331 86.188C149.739 85.708 150.315 85.264 151.059 84.856C151.827 84.448 152.727 84.244 153.759 84.244C155.415 84.244 156.687 84.76 157.575 85.792C158.487 86.824 158.943 88.192 158.943 89.896C158.943 90.256 158.919 90.616 158.871 90.976C158.847 91.336 158.823 91.588 158.799 91.732H154.407V90.904ZM172.957 90.58C172.957 89.764 172.693 89.104 172.165 88.6C171.661 88.096 170.833 87.844 169.681 87.844C169.009 87.844 168.433 87.964 167.953 88.204C167.473 88.42 167.101 88.696 166.837 89.032C166.597 89.368 166.477 89.68 166.477 89.968V90.256H161.401C161.353 89.968 161.329 89.752 161.329 89.608C161.329 88.576 161.665 87.652 162.337 86.836C163.033 86.02 163.993 85.384 165.217 84.928C166.441 84.472 167.845 84.244 169.429 84.244H170.185C172.777 84.244 174.745 84.76 176.089 85.792C177.433 86.8 178.105 88.192 178.105 89.968V98.464C178.105 98.896 178.201 99.22 178.393 99.436C178.609 99.652 178.861 99.76 179.148 99.76C179.389 99.76 179.653 99.712 179.941 99.616C180.229 99.52 180.457 99.436 180.625 99.364V102.604C179.737 103.108 178.681 103.36 177.457 103.36C176.137 103.36 175.129 103.096 174.433 102.568C173.737 102.016 173.329 101.248 173.209 100.264C171.529 102.328 169.465 103.36 167.017 103.36C165.193 103.36 163.693 102.988 162.517 102.244C161.341 101.5 160.753 100.084 160.753 97.996C160.753 96.292 161.233 94.996 162.193 94.108C163.177 93.196 164.533 92.584 166.261 92.272C167.989 91.96 170.221 91.804 172.957 91.804V90.58ZM172.957 94.756C170.677 94.756 168.973 94.984 167.845 95.44C166.741 95.872 166.189 96.592 166.189 97.6C166.189 98.392 166.405 98.956 166.837 99.292C167.293 99.604 167.977 99.76 168.889 99.76C169.513 99.76 170.137 99.592 170.761 99.256C171.385 98.92 171.901 98.44 172.309 97.816C172.741 97.192 172.957 96.496 172.957 95.728V94.756ZM183.204 103V77.08H188.46V103H183.204ZM206.353 93.208C206.353 95.032 206.845 96.448 207.829 97.456C208.813 98.44 210.061 98.932 211.573 98.932C213.277 98.932 214.537 98.476 215.353 97.564C216.169 96.628 216.577 95.2 216.577 93.28H221.653C221.653 95.392 221.221 97.216 220.357 98.752C219.517 100.264 218.353 101.416 216.865 102.208C215.377 102.976 213.697 103.36 211.825 103.36H211.321C209.257 103.36 207.409 102.94 205.777 102.1C204.145 101.26 202.861 100.024 201.925 98.392C200.989 96.736 200.521 94.744 200.521 92.416V88.888C200.521 86.632 200.989 84.676 201.925 83.02C202.861 81.364 204.133 80.104 205.741 79.24C207.373 78.376 209.185 77.944 211.177 77.944H211.681C213.601 77.944 215.305 78.328 216.793 79.096C218.305 79.84 219.493 80.98 220.357 82.516C221.221 84.028 221.653 85.888 221.653 88.096H216.361C216.361 86.224 215.941 84.808 215.101 83.848C214.285 82.864 213.097 82.372 211.537 82.372C210.025 82.372 208.777 82.876 207.793 83.884C206.833 84.868 206.353 86.272 206.353 88.096V93.208ZM243.491 94.324C243.491 96.172 243.095 97.78 242.303 99.148C241.535 100.516 240.467 101.56 239.099 102.28C237.731 103 236.195 103.36 234.491 103.36H233.915C232.211 103.36 230.675 103 229.307 102.28C227.939 101.56 226.859 100.516 226.067 99.148C225.299 97.78 224.915 96.172 224.915 94.324V93.28C224.915 91.432 225.299 89.824 226.067 88.456C226.859 87.088 227.939 86.044 229.307 85.324C230.675 84.604 232.211 84.244 233.915 84.244H234.491C236.195 84.244 237.731 84.604 239.099 85.324C240.467 86.044 241.535 87.088 242.303 88.456C243.095 89.824 243.491 91.432 243.491 93.28V94.324ZM238.163 92.344C238.163 90.88 237.791 89.764 237.047 88.996C236.327 88.228 235.379 87.844 234.203 87.844C233.027 87.844 232.067 88.228 231.323 88.996C230.603 89.764 230.243 90.88 230.243 92.344V95.26C230.243 96.724 230.603 97.84 231.323 98.608C232.067 99.376 233.027 99.76 234.203 99.76C235.379 99.76 236.327 99.376 237.047 98.608C237.791 97.84 238.163 96.724 238.163 95.26V92.344ZM251.899 87.304C253.411 85.264 255.367 84.244 257.767 84.244C259.639 84.244 261.175 84.748 262.375 85.756C263.599 86.764 264.211 88.228 264.211 90.148V103H258.955V91.3C258.955 90.364 258.679 89.596 258.127 88.996C257.599 88.372 256.915 88.06 256.075 88.06C255.139 88.06 254.335 88.42 253.663 89.14C252.991 89.836 252.655 90.688 252.655 91.696V103H247.399V84.604H251.323L251.899 87.304ZM278.852 102.676C278.372 102.868 277.736 103.024 276.944 103.144C276.176 103.288 275.492 103.36 274.892 103.36C273.044 103.36 271.652 102.964 270.716 102.172C269.78 101.38 269.312 100.06 269.312 98.212V88.204H267.296V84.604H269.492L271.328 78.736H274.568V84.604H278.852V88.204H274.568V97.312C274.568 98.272 274.748 98.92 275.108 99.256C275.492 99.592 275.996 99.76 276.62 99.76C276.908 99.76 277.28 99.712 277.736 99.616C278.192 99.52 278.564 99.412 278.852 99.292V102.676ZM292.571 90.904C292.571 90.16 292.367 89.524 291.959 88.996C291.551 88.444 290.903 88.168 290.015 88.168C289.175 88.168 288.527 88.504 288.071 89.176C287.639 89.824 287.423 90.64 287.423 91.624V103H282.239V84.604H286.127L286.775 87.304C286.871 87.04 287.111 86.668 287.495 86.188C287.903 85.708 288.479 85.264 289.223 84.856C289.991 84.448 290.891 84.244 291.923 84.244C293.579 84.244 294.851 84.76 295.739 85.792C296.651 86.824 297.107 88.192 297.107 89.896C297.107 90.256 297.083 90.616 297.035 90.976C297.011 91.336 296.987 91.588 296.963 91.732H292.571V90.904ZM311.121 90.58C311.121 89.764 310.857 89.104 310.329 88.6C309.825 88.096 308.997 87.844 307.845 87.844C307.173 87.844 306.597 87.964 306.117 88.204C305.637 88.42 305.265 88.696 305.001 89.032C304.761 89.368 304.641 89.68 304.641 89.968V90.256H299.565C299.517 89.968 299.493 89.752 299.493 89.608C299.493 88.576 299.829 87.652 300.501 86.836C301.197 86.02 302.157 85.384 303.381 84.928C304.605 84.472 306.009 84.244 307.593 84.244H308.349C310.941 84.244 312.909 84.76 314.253 85.792C315.597 86.8 316.269 88.192 316.269 89.968V98.464C316.269 98.896 316.365 99.22 316.557 99.436C316.773 99.652 317.025 99.76 317.313 99.76C317.553 99.76 317.817 99.712 318.105 99.616C318.393 99.52 318.621 99.436 318.789 99.364V102.604C317.901 103.108 316.845 103.36 315.621 103.36C314.301 103.36 313.293 103.096 312.597 102.568C311.901 102.016 311.493 101.248 311.373 100.264C309.693 102.328 307.629 103.36 305.181 103.36C303.357 103.36 301.857 102.988 300.681 102.244C299.505 101.5 298.917 100.084 298.917 97.996C298.917 96.292 299.397 94.996 300.357 94.108C301.341 93.196 302.697 92.584 304.425 92.272C306.153 91.96 308.385 91.804 311.121 91.804V90.58ZM311.121 94.756C308.841 94.756 307.137 94.984 306.009 95.44C304.905 95.872 304.353 96.592 304.353 97.6C304.353 98.392 304.569 98.956 305.001 99.292C305.457 99.604 306.141 99.76 307.053 99.76C307.677 99.76 308.301 99.592 308.925 99.256C309.549 98.92 310.065 98.44 310.473 97.816C310.905 97.192 311.121 96.496 311.121 95.728V94.756ZM325.868 95.548C325.868 96.748 326.18 97.756 326.804 98.572C327.428 99.364 328.268 99.76 329.324 99.76C330.428 99.76 331.292 99.424 331.916 98.752C332.564 98.056 332.888 97.036 332.888 95.692H337.856C337.856 97.396 337.484 98.824 336.74 99.976C336.02 101.128 335.06 101.98 333.86 102.532C332.66 103.084 331.34 103.36 329.9 103.36H329.324C326.636 103.36 324.5 102.568 322.916 100.984C321.332 99.376 320.54 97.156 320.54 94.324V93.28C320.54 91.408 320.912 89.8 321.656 88.456C322.424 87.088 323.468 86.044 324.788 85.324C326.108 84.604 327.62 84.244 329.324 84.244H329.9C331.316 84.244 332.624 84.556 333.824 85.18C335.048 85.78 336.02 86.668 336.74 87.844C337.484 88.996 337.856 90.364 337.856 91.948H332.636C332.636 90.7 332.36 89.704 331.808 88.96C331.256 88.216 330.44 87.844 329.36 87.844C328.28 87.844 327.428 88.276 326.804 89.14C326.18 89.98 325.868 91.048 325.868 92.344V95.548ZM351.766 102.676C351.286 102.868 350.65 103.024 349.858 103.144C349.09 103.288 348.406 103.36 347.806 103.36C345.958 103.36 344.566 102.964 343.63 102.172C342.694 101.38 342.226 100.06 342.226 98.212V88.204H340.21V84.604H342.406L344.242 78.736H347.482V84.604H351.766V88.204H347.482V97.312C347.482 98.272 347.662 98.92 348.022 99.256C348.406 99.592 348.91 99.76 349.534 99.76C349.822 99.76 350.194 99.712 350.65 99.616C351.106 99.52 351.478 99.412 351.766 99.292V102.676ZM372.901 94.324C372.901 96.172 372.505 97.78 371.713 99.148C370.945 100.516 369.877 101.56 368.509 102.28C367.141 103 365.605 103.36 363.901 103.36H363.325C361.621 103.36 360.085 103 358.717 102.28C357.349 101.56 356.269 100.516 355.477 99.148C354.709 97.78 354.325 96.172 354.325 94.324V93.28C354.325 91.432 354.709 89.824 355.477 88.456C356.269 87.088 357.349 86.044 358.717 85.324C360.085 84.604 361.621 84.244 363.325 84.244H363.901C365.605 84.244 367.141 84.604 368.509 85.324C369.877 86.044 370.945 87.088 371.713 88.456C372.505 89.824 372.901 91.432 372.901 93.28V94.324ZM367.573 92.344C367.573 90.88 367.201 89.764 366.457 88.996C365.737 88.228 364.789 87.844 363.613 87.844C362.437 87.844 361.477 88.228 360.733 88.996C360.013 89.764 359.653 90.88 359.653 92.344V95.26C359.653 96.724 360.013 97.84 360.733 98.608C361.477 99.376 362.437 99.76 363.613 99.76C364.789 99.76 365.737 99.376 366.457 98.608C367.201 97.84 367.573 96.724 367.573 95.26V92.344ZM387.142 90.904C387.142 90.16 386.938 89.524 386.53 88.996C386.122 88.444 385.474 88.168 384.586 88.168C383.746 88.168 383.098 88.504 382.642 89.176C382.21 89.824 381.994 90.64 381.994 91.624V103H376.81V84.604H380.698L381.346 87.304C381.442 87.04 381.682 86.668 382.066 86.188C382.474 85.708 383.05 85.264 383.794 84.856C384.562 84.448 385.462 84.244 386.494 84.244C388.15 84.244 389.422 84.76 390.31 85.792C391.222 86.824 391.678 88.192 391.678 89.896C391.678 90.256 391.654 90.616 391.606 90.976C391.582 91.336 391.558 91.588 391.534 91.732H387.142V90.904Z" fill="#9B7400"/>
<path d="M57.66 159.288C57.66 158.376 57.3 157.668 56.58 157.164C55.86 156.636 54.864 156.372 53.592 156.372C52.272 156.372 51.24 156.588 50.496 157.02C49.776 157.428 49.416 157.98 49.416 158.676C49.416 159.276 49.644 159.78 50.1 160.188C50.556 160.572 51.132 160.884 51.828 161.124C52.548 161.364 53.52 161.628 54.744 161.916C56.544 162.348 58.02 162.792 59.172 163.248C60.348 163.704 61.344 164.412 62.16 165.372C63 166.332 63.42 167.616 63.42 169.224C63.42 172.032 62.508 174.096 60.684 175.416C58.884 176.712 56.4 177.36 53.232 177.36C50.352 177.36 47.964 176.736 46.068 175.488C44.196 174.216 43.26 172.296 43.26 169.728L43.296 168.936H48.552L48.516 169.512C48.516 170.568 48.912 171.408 49.704 172.032C50.496 172.632 51.612 172.932 53.052 172.932C54.732 172.932 55.932 172.668 56.652 172.14C57.396 171.612 57.768 170.94 57.768 170.124C57.768 169.5 57.54 168.996 57.084 168.612C56.652 168.204 56.088 167.892 55.392 167.676C54.72 167.436 53.772 167.172 52.548 166.884C50.724 166.428 49.236 165.972 48.084 165.516C46.932 165.06 45.936 164.328 45.096 163.32C44.256 162.312 43.836 160.956 43.836 159.252C43.836 157.668 44.268 156.324 45.132 155.22C45.996 154.116 47.148 153.3 48.588 152.772C50.052 152.22 51.684 151.944 53.484 151.944C56.244 151.944 58.5 152.556 60.252 153.78C62.004 154.98 62.88 156.78 62.88 159.18V159.612H57.66V159.288ZM71.9076 160.908C73.2516 159.132 74.9796 158.244 77.0916 158.244C78.5316 158.244 79.8276 158.592 80.9796 159.288C82.1316 159.984 83.0436 161.04 83.7156 162.456C84.3876 163.872 84.7236 165.624 84.7236 167.712V168.108C84.7236 170.1 84.4116 171.792 83.7876 173.184C83.1636 174.576 82.3116 175.62 81.2316 176.316C80.1756 177.012 78.9756 177.36 77.6316 177.36C76.4796 177.36 75.4596 177.12 74.5716 176.64C73.7076 176.16 73.0116 175.572 72.4836 174.876V183.516H67.2276V158.604H71.3676L71.9076 160.908ZM79.3956 166.2C79.3956 164.784 79.0716 163.704 78.4236 162.96C77.7756 162.216 76.9476 161.844 75.9396 161.844C74.9316 161.844 74.1036 162.216 73.4556 162.96C72.8076 163.704 72.4836 164.784 72.4836 166.2V169.188C72.4836 170.58 72.8076 171.66 73.4556 172.428C74.1036 173.172 74.9316 173.544 75.9396 173.544C76.9476 173.544 77.7756 173.172 78.4236 172.428C79.0716 171.66 79.3956 170.58 79.3956 169.188V166.2ZM105.702 170.124C105.702 171.732 105.318 173.088 104.55 174.192C103.782 175.272 102.762 176.076 101.49 176.604C100.242 177.108 98.8737 177.36 97.3857 177.36H96.8097C95.1057 177.36 93.5697 177 92.2017 176.28C90.8337 175.56 89.7537 174.528 88.9617 173.184C88.1937 171.816 87.8097 170.196 87.8097 168.324V167.28C87.8097 165.432 88.2057 163.824 88.9977 162.456C89.7897 161.088 90.8577 160.044 92.2017 159.324C93.5697 158.604 95.1057 158.244 96.8097 158.244H97.3857C98.8737 158.244 100.254 158.556 101.526 159.18C102.798 159.78 103.818 160.668 104.586 161.844C105.354 162.996 105.738 164.364 105.738 165.948V168.684H93.1377V169.548C93.1377 170.748 93.4857 171.756 94.1817 172.572C94.9017 173.364 95.8737 173.76 97.0977 173.76C98.2017 173.76 99.0657 173.46 99.6897 172.86C100.338 172.236 100.662 171.324 100.662 170.124H105.702ZM96.8457 161.844C95.7897 161.844 94.9257 162.216 94.2537 162.96C93.6057 163.704 93.2337 164.652 93.1377 165.804H100.41C100.41 164.58 100.122 163.62 99.5457 162.924C98.9937 162.204 98.0937 161.844 96.8457 161.844ZM114.161 169.548C114.161 170.748 114.473 171.756 115.097 172.572C115.721 173.364 116.561 173.76 117.617 173.76C118.721 173.76 119.585 173.424 120.209 172.752C120.857 172.056 121.181 171.036 121.181 169.692H126.149C126.149 171.396 125.777 172.824 125.033 173.976C124.313 175.128 123.353 175.98 122.153 176.532C120.953 177.084 119.633 177.36 118.193 177.36H117.617C114.929 177.36 112.793 176.568 111.209 174.984C109.625 173.376 108.833 171.156 108.833 168.324V167.28C108.833 165.408 109.205 163.8 109.949 162.456C110.717 161.088 111.761 160.044 113.081 159.324C114.401 158.604 115.913 158.244 117.617 158.244H118.193C119.609 158.244 120.917 158.556 122.117 159.18C123.341 159.78 124.313 160.668 125.033 161.844C125.777 162.996 126.149 164.364 126.149 165.948H120.929C120.929 164.7 120.653 163.704 120.101 162.96C119.549 162.216 118.733 161.844 117.653 161.844C116.573 161.844 115.721 162.276 115.097 163.14C114.473 163.98 114.161 165.048 114.161 166.344V169.548ZM130.051 151.08H135.379V155.22H130.051V151.08ZM130.087 177V158.604H135.343V177H130.087ZM151.374 164.58C151.374 163.764 151.11 163.104 150.582 162.6C150.078 162.096 149.25 161.844 148.098 161.844C147.426 161.844 146.85 161.964 146.37 162.204C145.89 162.42 145.518 162.696 145.254 163.032C145.014 163.368 144.894 163.68 144.894 163.968V164.256H139.818C139.77 163.968 139.746 163.752 139.746 163.608C139.746 162.576 140.082 161.652 140.754 160.836C141.45 160.02 142.41 159.384 143.634 158.928C144.858 158.472 146.262 158.244 147.846 158.244H148.602C151.194 158.244 153.162 158.76 154.506 159.792C155.85 160.8 156.522 162.192 156.522 163.968V172.464C156.522 172.896 156.618 173.22 156.81 173.436C157.026 173.652 157.278 173.76 157.566 173.76C157.806 173.76 158.07 173.712 158.358 173.616C158.646 173.52 158.874 173.436 159.042 173.364V176.604C158.154 177.108 157.098 177.36 155.874 177.36C154.554 177.36 153.546 177.096 152.85 176.568C152.154 176.016 151.746 175.248 151.626 174.264C149.946 176.328 147.882 177.36 145.434 177.36C143.61 177.36 142.11 176.988 140.934 176.244C139.758 175.5 139.17 174.084 139.17 171.996C139.17 170.292 139.65 168.996 140.61 168.108C141.594 167.196 142.95 166.584 144.678 166.272C146.406 165.96 148.638 165.804 151.374 165.804V164.58ZM151.374 168.756C149.094 168.756 147.39 168.984 146.262 169.44C145.158 169.872 144.606 170.592 144.606 171.6C144.606 172.392 144.822 172.956 145.254 173.292C145.71 173.604 146.394 173.76 147.306 173.76C147.93 173.76 148.554 173.592 149.178 173.256C149.802 172.92 150.318 172.44 150.726 171.816C151.158 171.192 151.374 170.496 151.374 169.728V168.756ZM161.622 177V151.08H166.878V177H161.622ZM181.649 176.676C181.169 176.868 180.533 177.024 179.741 177.144C178.973 177.288 178.289 177.36 177.689 177.36C175.841 177.36 174.449 176.964 173.513 176.172C172.577 175.38 172.109 174.06 172.109 172.212V162.204H170.093V158.604H172.289L174.125 152.736H177.365V158.604H181.649V162.204H177.365V171.312C177.365 172.272 177.545 172.92 177.905 173.256C178.289 173.592 178.793 173.76 179.417 173.76C179.705 173.76 180.077 173.712 180.533 173.616C180.989 173.52 181.361 173.412 181.649 173.292V176.676ZM195.188 175.992C194.3 178.392 193.208 180.276 191.912 181.644C190.616 183.036 189.056 183.732 187.232 183.732C185.96 183.732 184.928 183.552 184.136 183.192V179.484C184.424 179.604 184.796 179.712 185.252 179.808C185.708 179.928 186.14 179.988 186.548 179.988C188.084 179.988 189.176 178.872 189.824 176.64L182.876 158.604H188.456L192.524 170.16H192.74L196.556 158.604H201.74L195.188 175.992ZM217.431 167.208C217.431 169.032 217.923 170.448 218.907 171.456C219.891 172.44 221.139 172.932 222.651 172.932C224.355 172.932 225.615 172.476 226.431 171.564C227.247 170.628 227.655 169.2 227.655 167.28H232.731C232.731 169.392 232.299 171.216 231.435 172.752C230.595 174.264 229.431 175.416 227.943 176.208C226.455 176.976 224.775 177.36 222.903 177.36H222.399C220.335 177.36 218.487 176.94 216.855 176.1C215.223 175.26 213.939 174.024 213.003 172.392C212.067 170.736 211.599 168.744 211.599 166.416V162.888C211.599 160.632 212.067 158.676 213.003 157.02C213.939 155.364 215.211 154.104 216.819 153.24C218.451 152.376 220.263 151.944 222.255 151.944H222.759C224.679 151.944 226.383 152.328 227.871 153.096C229.383 153.84 230.571 154.98 231.435 156.516C232.299 158.028 232.731 159.888 232.731 162.096H227.439C227.439 160.224 227.019 158.808 226.179 157.848C225.363 156.864 224.175 156.372 222.615 156.372C221.103 156.372 219.855 156.876 218.871 157.884C217.911 158.868 217.431 160.272 217.431 162.096V167.208ZM254.569 168.324C254.569 170.172 254.173 171.78 253.381 173.148C252.613 174.516 251.545 175.56 250.177 176.28C248.809 177 247.273 177.36 245.569 177.36H244.993C243.289 177.36 241.753 177 240.385 176.28C239.017 175.56 237.937 174.516 237.145 173.148C236.377 171.78 235.993 170.172 235.993 168.324V167.28C235.993 165.432 236.377 163.824 237.145 162.456C237.937 161.088 239.017 160.044 240.385 159.324C241.753 158.604 243.289 158.244 244.993 158.244H245.569C247.273 158.244 248.809 158.604 250.177 159.324C251.545 160.044 252.613 161.088 253.381 162.456C254.173 163.824 254.569 165.432 254.569 167.28V168.324ZM249.241 166.344C249.241 164.88 248.869 163.764 248.125 162.996C247.405 162.228 246.457 161.844 245.281 161.844C244.105 161.844 243.145 162.228 242.401 162.996C241.681 163.764 241.321 164.88 241.321 166.344V169.26C241.321 170.724 241.681 171.84 242.401 172.608C243.145 173.376 244.105 173.76 245.281 173.76C246.457 173.76 247.405 173.376 248.125 172.608C248.869 171.84 249.241 170.724 249.241 169.26V166.344ZM262.978 161.304C264.49 159.264 266.446 158.244 268.846 158.244C270.718 158.244 272.254 158.748 273.454 159.756C274.678 160.764 275.29 162.228 275.29 164.148V177H270.034V165.3C270.034 164.364 269.758 163.596 269.206 162.996C268.678 162.372 267.994 162.06 267.154 162.06C266.218 162.06 265.414 162.42 264.742 163.14C264.07 163.836 263.734 164.688 263.734 165.696V177H258.478V158.604H262.402L262.978 161.304ZM289.93 176.676C289.45 176.868 288.814 177.024 288.022 177.144C287.254 177.288 286.57 177.36 285.97 177.36C284.122 177.36 282.73 176.964 281.794 176.172C280.858 175.38 280.39 174.06 280.39 172.212V162.204H278.374V158.604H280.57L282.406 152.736H285.646V158.604H289.93V162.204H285.646V171.312C285.646 172.272 285.826 172.92 286.186 173.256C286.57 173.592 287.074 173.76 287.698 173.76C287.986 173.76 288.358 173.712 288.814 173.616C289.27 173.52 289.642 173.412 289.93 173.292V176.676ZM303.649 164.904C303.649 164.16 303.445 163.524 303.037 162.996C302.629 162.444 301.981 162.168 301.093 162.168C300.253 162.168 299.605 162.504 299.149 163.176C298.717 163.824 298.501 164.64 298.501 165.624V177H293.317V158.604H297.205L297.853 161.304C297.949 161.04 298.189 160.668 298.573 160.188C298.981 159.708 299.557 159.264 300.301 158.856C301.069 158.448 301.969 158.244 303.001 158.244C304.657 158.244 305.929 158.76 306.817 159.792C307.729 160.824 308.185 162.192 308.185 163.896C308.185 164.256 308.161 164.616 308.113 164.976C308.089 165.336 308.065 165.588 308.041 165.732H303.649V164.904ZM322.199 164.58C322.199 163.764 321.935 163.104 321.407 162.6C320.903 162.096 320.075 161.844 318.923 161.844C318.251 161.844 317.675 161.964 317.195 162.204C316.715 162.42 316.343 162.696 316.079 163.032C315.839 163.368 315.719 163.68 315.719 163.968V164.256H310.643C310.595 163.968 310.571 163.752 310.571 163.608C310.571 162.576 310.907 161.652 311.579 160.836C312.275 160.02 313.235 159.384 314.459 158.928C315.683 158.472 317.087 158.244 318.671 158.244H319.427C322.019 158.244 323.987 158.76 325.331 159.792C326.675 160.8 327.347 162.192 327.347 163.968V172.464C327.347 172.896 327.443 173.22 327.635 173.436C327.851 173.652 328.103 173.76 328.391 173.76C328.631 173.76 328.895 173.712 329.183 173.616C329.471 173.52 329.699 173.436 329.867 173.364V176.604C328.979 177.108 327.923 177.36 326.699 177.36C325.379 177.36 324.371 177.096 323.675 176.568C322.979 176.016 322.571 175.248 322.451 174.264C320.771 176.328 318.707 177.36 316.259 177.36C314.435 177.36 312.935 176.988 311.759 176.244C310.583 175.5 309.995 174.084 309.995 171.996C309.995 170.292 310.475 168.996 311.435 168.108C312.419 167.196 313.775 166.584 315.503 166.272C317.231 165.96 319.463 165.804 322.199 165.804V164.58ZM322.199 168.756C319.919 168.756 318.215 168.984 317.087 169.44C315.983 169.872 315.431 170.592 315.431 171.6C315.431 172.392 315.647 172.956 316.079 173.292C316.535 173.604 317.219 173.76 318.131 173.76C318.755 173.76 319.379 173.592 320.003 173.256C320.627 172.92 321.143 172.44 321.551 171.816C321.983 171.192 322.199 170.496 322.199 169.728V168.756ZM336.946 169.548C336.946 170.748 337.258 171.756 337.882 172.572C338.506 173.364 339.346 173.76 340.402 173.76C341.506 173.76 342.37 173.424 342.994 172.752C343.642 172.056 343.966 171.036 343.966 169.692H348.934C348.934 171.396 348.562 172.824 347.818 173.976C347.098 175.128 346.138 175.98 344.938 176.532C343.738 177.084 342.418 177.36 340.978 177.36H340.402C337.714 177.36 335.578 176.568 333.994 174.984C332.41 173.376 331.618 171.156 331.618 168.324V167.28C331.618 165.408 331.99 163.8 332.734 162.456C333.502 161.088 334.546 160.044 335.866 159.324C337.186 158.604 338.698 158.244 340.402 158.244H340.978C342.394 158.244 343.702 158.556 344.902 159.18C346.126 159.78 347.098 160.668 347.818 161.844C348.562 162.996 348.934 164.364 348.934 165.948H343.714C343.714 164.7 343.438 163.704 342.886 162.96C342.334 162.216 341.518 161.844 340.438 161.844C339.358 161.844 338.506 162.276 337.882 163.14C337.258 163.98 336.946 165.048 336.946 166.344V169.548ZM362.844 176.676C362.364 176.868 361.728 177.024 360.936 177.144C360.168 177.288 359.484 177.36 358.884 177.36C357.036 177.36 355.644 176.964 354.708 176.172C353.772 175.38 353.304 174.06 353.304 172.212V162.204H351.288V158.604H353.484L355.32 152.736H358.56V158.604H362.844V162.204H358.56V171.312C358.56 172.272 358.74 172.92 359.1 173.256C359.484 173.592 359.988 173.76 360.612 173.76C360.9 173.76 361.272 173.712 361.728 173.616C362.184 173.52 362.556 173.412 362.844 173.292V176.676ZM383.979 168.324C383.979 170.172 383.583 171.78 382.791 173.148C382.023 174.516 380.955 175.56 379.587 176.28C378.219 177 376.683 177.36 374.979 177.36H374.403C372.699 177.36 371.163 177 369.795 176.28C368.427 175.56 367.347 174.516 366.555 173.148C365.787 171.78 365.403 170.172 365.403 168.324V167.28C365.403 165.432 365.787 163.824 366.555 162.456C367.347 161.088 368.427 160.044 369.795 159.324C371.163 158.604 372.699 158.244 374.403 158.244H374.979C376.683 158.244 378.219 158.604 379.587 159.324C380.955 160.044 382.023 161.088 382.791 162.456C383.583 163.824 383.979 165.432 383.979 167.28V168.324ZM378.651 166.344C378.651 164.88 378.279 163.764 377.535 162.996C376.815 162.228 375.867 161.844 374.691 161.844C373.515 161.844 372.555 162.228 371.811 162.996C371.091 163.764 370.731 164.88 370.731 166.344V169.26C370.731 170.724 371.091 171.84 371.811 172.608C372.555 173.376 373.515 173.76 374.691 173.76C375.867 173.76 376.815 173.376 377.535 172.608C378.279 171.84 378.651 170.724 378.651 169.26V166.344ZM398.22 164.904C398.22 164.16 398.016 163.524 397.608 162.996C397.2 162.444 396.552 162.168 395.664 162.168C394.824 162.168 394.176 162.504 393.72 163.176C393.288 163.824 393.072 164.64 393.072 165.624V177H387.888V158.604H391.776L392.424 161.304C392.52 161.04 392.76 160.668 393.144 160.188C393.552 159.708 394.128 159.264 394.872 158.856C395.64 158.448 396.54 158.244 397.572 158.244C399.228 158.244 400.5 158.76 401.388 159.792C402.3 160.824 402.756 162.192 402.756 163.896C402.756 164.256 402.732 164.616 402.684 164.976C402.66 165.336 402.636 165.588 402.612 165.732H398.22V164.904Z" fill="#9B7400"/>
<path d="M44.704 245V234.704H36.172V245H30.592V220.304H36.136V230.096H44.704V220.304H50.248V245H44.704ZM73.0146 236.324C73.0146 238.172 72.6186 239.78 71.8266 241.148C71.0586 242.516 69.9906 243.56 68.6226 244.28C67.2546 245 65.7186 245.36 64.0146 245.36H63.4386C61.7346 245.36 60.1986 245 58.8306 244.28C57.4626 243.56 56.3826 242.516 55.5906 241.148C54.8226 239.78 54.4386 238.172 54.4386 236.324V235.28C54.4386 233.432 54.8226 231.824 55.5906 230.456C56.3826 229.088 57.4626 228.044 58.8306 227.324C60.1986 226.604 61.7346 226.244 63.4386 226.244H64.0146C65.7186 226.244 67.2546 226.604 68.6226 227.324C69.9906 228.044 71.0586 229.088 71.8266 230.456C72.6186 231.824 73.0146 233.432 73.0146 235.28V236.324ZM67.6866 234.344C67.6866 232.88 67.3146 231.764 66.5706 230.996C65.8506 230.228 64.9026 229.844 63.7266 229.844C62.5506 229.844 61.5906 230.228 60.8466 230.996C60.1266 231.764 59.7666 232.88 59.7666 234.344V237.26C59.7666 238.724 60.1266 239.84 60.8466 240.608C61.5906 241.376 62.5506 241.76 63.7266 241.76C64.9026 241.76 65.8506 241.376 66.5706 240.608C67.3146 239.84 67.6866 238.724 67.6866 237.26V234.344ZM86.8589 226.244C88.0349 226.244 89.0909 226.496 90.0269 227C90.9629 227.504 91.6829 228.236 92.1869 229.196C93.4349 227.228 95.2229 226.244 97.5509 226.244C99.2789 226.244 100.707 226.772 101.835 227.828C102.987 228.86 103.563 230.3 103.563 232.148V245H98.3069V233.192C98.3069 232.184 98.0909 231.416 97.6589 230.888C97.2269 230.336 96.6269 230.06 95.8589 230.06C95.0189 230.06 94.3109 230.396 93.7349 231.068C93.1589 231.74 92.8709 232.58 92.8709 233.588V245H87.6149V233.192C87.6149 232.208 87.3869 231.44 86.9309 230.888C86.4989 230.336 85.8989 230.06 85.1309 230.06C84.2909 230.06 83.5829 230.396 83.0069 231.068C82.4549 231.74 82.1789 232.58 82.1789 233.588V245H76.9229V226.604H80.8829C81.0269 227.204 81.2189 228.104 81.4589 229.304C82.1069 228.272 82.8869 227.504 83.7989 227C84.7349 226.496 85.7549 226.244 86.8589 226.244ZM125.311 238.124C125.311 239.732 124.927 241.088 124.159 242.192C123.391 243.272 122.371 244.076 121.099 244.604C119.851 245.108 118.483 245.36 116.995 245.36H116.419C114.715 245.36 113.179 245 111.811 244.28C110.443 243.56 109.363 242.528 108.571 241.184C107.803 239.816 107.419 238.196 107.419 236.324V235.28C107.419 233.432 107.815 231.824 108.607 230.456C109.399 229.088 110.467 228.044 111.811 227.324C113.179 226.604 114.715 226.244 116.419 226.244H116.995C118.483 226.244 119.863 226.556 121.135 227.18C122.407 227.78 123.427 228.668 124.195 229.844C124.963 230.996 125.347 232.364 125.347 233.948V236.684H112.747V237.548C112.747 238.748 113.095 239.756 113.791 240.572C114.511 241.364 115.483 241.76 116.707 241.76C117.811 241.76 118.675 241.46 119.299 240.86C119.947 240.236 120.271 239.324 120.271 238.124H125.311ZM116.455 229.844C115.399 229.844 114.535 230.216 113.863 230.96C113.215 231.704 112.843 232.652 112.747 233.804H120.019C120.019 232.58 119.731 231.62 119.155 230.924C118.603 230.204 117.703 229.844 116.455 229.844ZM148.449 232.58C148.449 231.764 148.185 231.104 147.657 230.6C147.153 230.096 146.325 229.844 145.173 229.844C144.501 229.844 143.925 229.964 143.445 230.204C142.965 230.42 142.593 230.696 142.329 231.032C142.089 231.368 141.969 231.68 141.969 231.968V232.256H136.893C136.845 231.968 136.821 231.752 136.821 231.608C136.821 230.576 137.157 229.652 137.829 228.836C138.525 228.02 139.485 227.384 140.709 226.928C141.933 226.472 143.337 226.244 144.921 226.244H145.677C148.269 226.244 150.237 226.76 151.581 227.792C152.925 228.8 153.597 230.192 153.597 231.968V240.464C153.597 240.896 153.693 241.22 153.885 241.436C154.101 241.652 154.353 241.76 154.641 241.76C154.881 241.76 155.145 241.712 155.433 241.616C155.721 241.52 155.949 241.436 156.117 241.364V244.604C155.229 245.108 154.173 245.36 152.949 245.36C151.629 245.36 150.621 245.096 149.925 244.568C149.229 244.016 148.821 243.248 148.701 242.264C147.021 244.328 144.957 245.36 142.509 245.36C140.685 245.36 139.185 244.988 138.009 244.244C136.833 243.5 136.245 242.084 136.245 239.996C136.245 238.292 136.725 236.996 137.685 236.108C138.669 235.196 140.025 234.584 141.753 234.272C143.481 233.96 145.713 233.804 148.449 233.804V232.58ZM148.449 236.756C146.169 236.756 144.465 236.984 143.337 237.44C142.233 237.872 141.681 238.592 141.681 239.6C141.681 240.392 141.897 240.956 142.329 241.292C142.785 241.604 143.469 241.76 144.381 241.76C145.005 241.76 145.629 241.592 146.253 241.256C146.877 240.92 147.393 240.44 147.801 239.816C148.233 239.192 148.449 238.496 148.449 237.728V236.756ZM163.196 229.304C164.708 227.264 166.664 226.244 169.064 226.244C170.936 226.244 172.472 226.748 173.672 227.756C174.896 228.764 175.508 230.228 175.508 232.148V245H170.252V233.3C170.252 232.364 169.976 231.596 169.424 230.996C168.896 230.372 168.212 230.06 167.372 230.06C166.436 230.06 165.632 230.42 164.96 231.14C164.288 231.836 163.952 232.688 163.952 233.696V245H158.696V226.604H162.62L163.196 229.304ZM192.165 242.696C190.821 244.472 189.093 245.36 186.981 245.36C185.541 245.36 184.245 245.012 183.093 244.316C181.941 243.62 181.029 242.564 180.357 241.148C179.685 239.732 179.349 237.98 179.349 235.892V235.496C179.349 233.504 179.661 231.812 180.285 230.42C180.909 229.028 181.749 227.984 182.805 227.288C183.885 226.592 185.097 226.244 186.441 226.244C187.593 226.244 188.601 226.484 189.465 226.964C190.353 227.444 191.061 228.032 191.589 228.728V219.08H196.845V245H192.705L192.165 242.696ZM184.677 237.404C184.677 238.796 185.001 239.876 185.649 240.644C186.297 241.388 187.125 241.76 188.133 241.76C189.141 241.76 189.969 241.388 190.617 240.644C191.265 239.876 191.589 238.796 191.589 237.404V234.416C191.589 233 191.265 231.92 190.617 231.176C189.969 230.432 189.141 230.06 188.133 230.06C187.125 230.06 186.297 230.432 185.649 231.176C185.001 231.92 184.677 233 184.677 234.416V237.404ZM214.681 235.208C214.681 237.032 215.173 238.448 216.157 239.456C217.141 240.44 218.389 240.932 219.901 240.932C221.605 240.932 222.865 240.476 223.681 239.564C224.497 238.628 224.905 237.2 224.905 235.28H229.981C229.981 237.392 229.549 239.216 228.685 240.752C227.845 242.264 226.681 243.416 225.193 244.208C223.705 244.976 222.025 245.36 220.153 245.36H219.649C217.585 245.36 215.737 244.94 214.105 244.1C212.473 243.26 211.189 242.024 210.253 240.392C209.317 238.736 208.849 236.744 208.849 234.416V230.888C208.849 228.632 209.317 226.676 210.253 225.02C211.189 223.364 212.461 222.104 214.069 221.24C215.701 220.376 217.513 219.944 219.505 219.944H220.009C221.929 219.944 223.633 220.328 225.121 221.096C226.633 221.84 227.821 222.98 228.685 224.516C229.549 226.028 229.981 227.888 229.981 230.096H224.689C224.689 228.224 224.269 226.808 223.429 225.848C222.613 224.864 221.425 224.372 219.865 224.372C218.353 224.372 217.105 224.876 216.121 225.884C215.161 226.868 214.681 228.272 214.681 230.096V235.208ZM251.819 236.324C251.819 238.172 251.423 239.78 250.631 241.148C249.863 242.516 248.795 243.56 247.427 244.28C246.059 245 244.523 245.36 242.819 245.36H242.243C240.539 245.36 239.003 245 237.635 244.28C236.267 243.56 235.187 242.516 234.395 241.148C233.627 239.78 233.243 238.172 233.243 236.324V235.28C233.243 233.432 233.627 231.824 234.395 230.456C235.187 229.088 236.267 228.044 237.635 227.324C239.003 226.604 240.539 226.244 242.243 226.244H242.819C244.523 226.244 246.059 226.604 247.427 227.324C248.795 228.044 249.863 229.088 250.631 230.456C251.423 231.824 251.819 233.432 251.819 235.28V236.324ZM246.491 234.344C246.491 232.88 246.119 231.764 245.375 230.996C244.655 230.228 243.707 229.844 242.531 229.844C241.355 229.844 240.395 230.228 239.651 230.996C238.931 231.764 238.571 232.88 238.571 234.344V237.26C238.571 238.724 238.931 239.84 239.651 240.608C240.395 241.376 241.355 241.76 242.531 241.76C243.707 241.76 244.655 241.376 245.375 240.608C246.119 239.84 246.491 238.724 246.491 237.26V234.344ZM265.664 226.244C266.84 226.244 267.896 226.496 268.832 227C269.768 227.504 270.488 228.236 270.992 229.196C272.24 227.228 274.028 226.244 276.356 226.244C278.084 226.244 279.512 226.772 280.64 227.828C281.792 228.86 282.368 230.3 282.368 232.148V245H277.112V233.192C277.112 232.184 276.896 231.416 276.464 230.888C276.032 230.336 275.432 230.06 274.664 230.06C273.824 230.06 273.116 230.396 272.54 231.068C271.964 231.74 271.676 232.58 271.676 233.588V245H266.42V233.192C266.42 232.208 266.192 231.44 265.736 230.888C265.304 230.336 264.704 230.06 263.936 230.06C263.096 230.06 262.388 230.396 261.812 231.068C261.26 231.74 260.984 232.58 260.984 233.588V245H255.728V226.604H259.688C259.832 227.204 260.024 228.104 260.264 229.304C260.912 228.272 261.692 227.504 262.604 227C263.54 226.496 264.56 226.244 265.664 226.244ZM296.988 226.244C298.164 226.244 299.22 226.496 300.156 227C301.092 227.504 301.812 228.236 302.316 229.196C303.564 227.228 305.352 226.244 307.68 226.244C309.408 226.244 310.836 226.772 311.964 227.828C313.116 228.86 313.692 230.3 313.692 232.148V245H308.436V233.192C308.436 232.184 308.22 231.416 307.788 230.888C307.356 230.336 306.756 230.06 305.988 230.06C305.148 230.06 304.44 230.396 303.864 231.068C303.288 231.74 303 232.58 303 233.588V245H297.744V233.192C297.744 232.208 297.516 231.44 297.06 230.888C296.628 230.336 296.028 230.06 295.26 230.06C294.42 230.06 293.712 230.396 293.136 231.068C292.584 231.74 292.308 232.58 292.308 233.588V245H287.052V226.604H291.012C291.156 227.204 291.348 228.104 291.588 229.304C292.236 228.272 293.016 227.504 293.928 227C294.864 226.496 295.884 226.244 296.988 226.244ZM335.44 238.124C335.44 239.732 335.056 241.088 334.288 242.192C333.52 243.272 332.5 244.076 331.228 244.604C329.98 245.108 328.612 245.36 327.124 245.36H326.548C324.844 245.36 323.308 245 321.94 244.28C320.572 243.56 319.492 242.528 318.7 241.184C317.932 239.816 317.548 238.196 317.548 236.324V235.28C317.548 233.432 317.944 231.824 318.736 230.456C319.528 229.088 320.596 228.044 321.94 227.324C323.308 226.604 324.844 226.244 326.548 226.244H327.124C328.612 226.244 329.992 226.556 331.264 227.18C332.536 227.78 333.556 228.668 334.324 229.844C335.092 230.996 335.476 232.364 335.476 233.948V236.684H322.876V237.548C322.876 238.748 323.224 239.756 323.92 240.572C324.64 241.364 325.612 241.76 326.836 241.76C327.94 241.76 328.804 241.46 329.428 240.86C330.076 240.236 330.4 239.324 330.4 238.124H335.44ZM326.584 229.844C325.528 229.844 324.664 230.216 323.992 230.96C323.344 231.704 322.972 232.652 322.876 233.804H330.148C330.148 232.58 329.86 231.62 329.284 230.924C328.732 230.204 327.832 229.844 326.584 229.844ZM349.731 232.904C349.731 232.16 349.527 231.524 349.119 230.996C348.711 230.444 348.063 230.168 347.175 230.168C346.335 230.168 345.687 230.504 345.231 231.176C344.799 231.824 344.583 232.64 344.583 233.624V245H339.399V226.604H343.287L343.935 229.304C344.031 229.04 344.271 228.668 344.655 228.188C345.063 227.708 345.639 227.264 346.383 226.856C347.151 226.448 348.051 226.244 349.083 226.244C350.739 226.244 352.011 226.76 352.899 227.792C353.811 228.824 354.267 230.192 354.267 231.896C354.267 232.256 354.243 232.616 354.195 232.976C354.171 233.336 354.147 233.588 354.123 233.732H349.731V232.904ZM361.513 237.548C361.513 238.748 361.825 239.756 362.449 240.572C363.073 241.364 363.913 241.76 364.969 241.76C366.073 241.76 366.937 241.424 367.561 240.752C368.209 240.056 368.533 239.036 368.533 237.692H373.501C373.501 239.396 373.129 240.824 372.385 241.976C371.665 243.128 370.705 243.98 369.505 244.532C368.305 245.084 366.985 245.36 365.545 245.36H364.969C362.281 245.36 360.145 244.568 358.561 242.984C356.977 241.376 356.185 239.156 356.185 236.324V235.28C356.185 233.408 356.557 231.8 357.301 230.456C358.069 229.088 359.113 228.044 360.433 227.324C361.753 226.604 363.265 226.244 364.969 226.244H365.545C366.961 226.244 368.269 226.556 369.469 227.18C370.693 227.78 371.665 228.668 372.385 229.844C373.129 230.996 373.501 232.364 373.501 233.948H368.281C368.281 232.7 368.005 231.704 367.453 230.96C366.901 230.216 366.085 229.844 365.005 229.844C363.925 229.844 363.073 230.276 362.449 231.14C361.825 231.98 361.513 233.048 361.513 234.344V237.548ZM377.403 219.08H382.731V223.22H377.403V219.08ZM377.438 245V226.604H382.695V245H377.438ZM398.726 232.58C398.726 231.764 398.462 231.104 397.934 230.6C397.43 230.096 396.602 229.844 395.45 229.844C394.778 229.844 394.202 229.964 393.722 230.204C393.242 230.42 392.87 230.696 392.606 231.032C392.366 231.368 392.246 231.68 392.246 231.968V232.256H387.17C387.122 231.968 387.098 231.752 387.098 231.608C387.098 230.576 387.434 229.652 388.106 228.836C388.802 228.02 389.762 227.384 390.986 226.928C392.21 226.472 393.614 226.244 395.198 226.244H395.954C398.546 226.244 400.514 226.76 401.858 227.792C403.202 228.8 403.874 230.192 403.874 231.968V240.464C403.874 240.896 403.97 241.22 404.162 241.436C404.378 241.652 404.63 241.76 404.918 241.76C405.158 241.76 405.422 241.712 405.71 241.616C405.998 241.52 406.226 241.436 406.394 241.364V244.604C405.506 245.108 404.45 245.36 403.226 245.36C401.906 245.36 400.898 245.096 400.202 244.568C399.506 244.016 399.098 243.248 398.978 242.264C397.298 244.328 395.234 245.36 392.786 245.36C390.962 245.36 389.462 244.988 388.286 244.244C387.11 243.5 386.522 242.084 386.522 239.996C386.522 238.292 387.002 236.996 387.962 236.108C388.946 235.196 390.302 234.584 392.03 234.272C393.758 233.96 395.99 233.804 398.726 233.804V232.58ZM398.726 236.756C396.446 236.756 394.742 236.984 393.614 237.44C392.51 237.872 391.958 238.592 391.958 239.6C391.958 240.392 392.174 240.956 392.606 241.292C393.062 241.604 393.746 241.76 394.658 241.76C395.282 241.76 395.906 241.592 396.53 241.256C397.154 240.92 397.67 240.44 398.078 239.816C398.51 239.192 398.726 238.496 398.726 237.728V236.756ZM408.974 245V219.08H414.23V245H408.974Z" fill="#9B7400"/>
<defs>
<filter id="filter0_d" x="0" y="0" width="445" height="338" filterUnits="userSpaceOnUse" color-interpolation-filters="sRGB">
<feFlood flood-opacity="0" result="BackgroundImageFix"/>
<feColorMatrix in="SourceAlpha" type="matrix" values="0 0 0 0 0 0 0 0 0 0 0 0 0 0 0 0 0 0 127 0"/>
<feOffset dy="6"/>
<feGaussianBlur stdDeviation="2"/>
<feColorMatrix type="matrix" values="0 0 0 0 0 0 0 0 0 0 0 0 0 0 0 0 0 0 0.25 0"/>
<feBlend mode="normal" in2="BackgroundImageFix" result="effect1_dropShadow"/>
<feBlend mode="normal" in="SourceGraphic" in2="effect1_dropShadow" result="shape"/>
</filter>
</defs>
</svg>
