<svg width="474" height="296" viewBox="0 0 474 296" fill="none" xmlns="http://www.w3.org/2000/svg">
<line x1="138.581" y1="7.40619" x2="387.581" y2="114.406" stroke="black" stroke-width="10"/>
<line x1="353.606" y1="95.9537" x2="354.569" y2="199.954" stroke="black" stroke-width="10"/>
<line x1="359.607" y1="200" x2="142.607" y2="200" stroke="black" stroke-width="10"/>
<line x1="189.107" y1="29" x2="189.107" y2="3.27835e-07" stroke="black" stroke-width="15"/>
<path d="M195.887 149H182.351V130.424C182.351 129.224 182.111 128.288 181.631 127.616C181.199 126.944 180.671 126.608 180.047 126.608C179.423 126.608 178.871 126.944 178.391 127.616C177.959 128.288 177.743 129.224 177.743 130.424V149H164.423V130.424C164.423 129.272 164.183 128.384 163.703 127.76C163.271 127.088 162.719 126.752 162.047 126.752C161.423 126.752 160.895 127.064 160.463 127.688C160.031 128.312 159.815 129.224 159.815 130.424V149H146.567V126.464C146.567 122.72 147.911 119.456 150.599 116.672C153.335 113.84 156.599 112.424 160.391 112.424C162.551 112.424 164.471 112.856 166.151 113.72C167.879 114.536 169.583 115.784 171.263 117.464C172.847 115.88 174.407 114.68 175.943 113.864C177.767 112.904 179.663 112.424 181.631 112.424C186.143 112.424 189.695 114.008 192.287 117.176C194.687 120.104 195.887 123.872 195.887 128.48V149ZM239.155 149H225.403V132.44C225.403 130.904 224.947 129.56 224.035 128.408C223.123 127.256 221.899 126.68 220.363 126.68C219.019 126.68 217.819 127.184 216.763 128.192C215.755 129.152 215.251 130.304 215.251 131.648C215.251 133.04 215.707 134.24 216.619 135.248C217.531 136.256 218.683 136.76 220.075 136.76C221.419 136.76 222.619 136.376 223.675 135.608V149.432C223.291 149.528 222.763 149.576 222.091 149.576C221.419 149.624 220.771 149.672 220.147 149.72C219.667 149.768 219.307 149.792 219.067 149.792C214.603 149.792 210.595 147.824 207.043 143.888C203.539 139.904 201.787 135.44 201.787 130.496C201.787 125.504 203.611 121.256 207.259 117.752C210.955 114.2 215.323 112.424 220.363 112.424C225.499 112.424 229.915 114.224 233.611 117.824C237.307 121.424 239.155 125.792 239.155 130.928V149ZM282.107 145.544C282.107 150.968 280.115 155.672 276.131 159.656C272.147 163.64 267.419 165.632 261.947 165.632C261.179 165.632 260.267 165.536 259.211 165.344C258.155 165.2 256.835 164.864 255.251 164.336V152.096C256.067 152.528 256.835 152.864 257.555 153.104C258.323 153.344 259.139 153.464 260.003 153.464C262.307 153.464 264.275 152.696 265.907 151.16C267.587 149.672 268.427 147.8 268.427 145.544V130.784C268.427 129.152 268.019 127.808 267.203 126.752C266.387 125.696 265.163 125.168 263.531 125.168C262.283 125.168 261.155 125.672 260.147 126.68C259.187 127.64 258.707 128.768 258.707 130.064C258.707 131.456 259.163 132.632 260.075 133.592C260.987 134.552 262.139 135.032 263.531 135.032C264.443 135.032 265.331 134.744 266.195 134.168V146.552C265.187 146.888 264.227 147.152 263.315 147.344C262.451 147.536 261.539 147.632 260.579 147.632C255.875 147.632 252.107 145.928 249.275 142.52C246.491 139.112 245.099 135.032 245.099 130.28C245.099 125.432 246.899 121.256 250.499 117.752C254.147 114.2 258.395 112.424 263.243 112.424C268.379 112.424 272.795 114.224 276.491 117.824C280.235 121.376 282.107 125.696 282.107 130.784V145.544ZM325.214 130.712L325.142 133.232H304.118C304.07 133.04 303.974 132.68 303.83 132.152C303.734 131.576 303.686 131.048 303.686 130.568C303.686 129.272 303.902 128.048 304.334 126.896H311.678C311.438 125.696 310.91 124.736 310.094 124.016C309.278 123.296 308.27 122.936 307.07 122.936C305.15 122.936 303.686 123.704 302.678 125.24C301.67 126.776 301.166 128.528 301.166 130.496C301.166 132.464 301.622 134.192 302.534 135.68C303.638 137.456 305.102 138.344 306.926 138.344C307.742 138.344 308.438 138.176 309.014 137.84C309.638 137.504 310.286 137 310.958 136.328L318.662 145.544C315.11 148.328 311.126 149.72 306.71 149.72C301.478 149.72 297.038 147.848 293.39 144.104C289.742 140.36 287.918 135.872 287.918 130.64C287.918 125.744 289.766 121.496 293.462 117.896C297.206 114.248 301.55 112.424 306.494 112.424C311.534 112.424 315.902 114.272 319.598 117.968C323.342 121.616 325.214 125.864 325.214 130.712Z" fill="#002487"/>
<rect x="92.1066" y="69.5" width="50" height="133" fill="#002487" stroke="#002487"/>
<rect x="80.1066" y="203.5" width="76" height="14" fill="#002487" stroke="#002487"/>
<path d="M142.607 103.5L55.1066 103.5L142.607 22.5L142.607 103.5Z" fill="#002487"/>
<path d="M169.167 225.208C169.167 227.032 169.659 228.448 170.643 229.456C171.627 230.44 172.875 230.932 174.387 230.932C176.091 230.932 177.351 230.476 178.167 229.564C178.983 228.628 179.391 227.2 179.391 225.28H184.467C184.467 227.392 184.035 229.216 183.171 230.752C182.331 232.264 181.167 233.416 179.679 234.208C178.191 234.976 176.511 235.36 174.639 235.36H174.135C172.071 235.36 170.223 234.94 168.591 234.1C166.959 233.26 165.675 232.024 164.739 230.392C163.803 228.736 163.335 226.744 163.335 224.416V220.888C163.335 218.632 163.803 216.676 164.739 215.02C165.675 213.364 166.947 212.104 168.555 211.24C170.187 210.376 171.999 209.944 173.991 209.944H174.495C176.415 209.944 178.119 210.328 179.607 211.096C181.119 211.84 182.307 212.98 183.171 214.516C184.035 216.028 184.467 217.888 184.467 220.096H179.175C179.175 218.224 178.755 216.808 177.915 215.848C177.099 214.864 175.911 214.372 174.351 214.372C172.839 214.372 171.591 214.876 170.607 215.884C169.647 216.868 169.167 218.272 169.167 220.096V225.208ZM206.305 226.324C206.305 228.172 205.909 229.78 205.117 231.148C204.349 232.516 203.281 233.56 201.913 234.28C200.545 235 199.009 235.36 197.305 235.36H196.729C195.025 235.36 193.489 235 192.121 234.28C190.753 233.56 189.673 232.516 188.881 231.148C188.113 229.78 187.729 228.172 187.729 226.324V225.28C187.729 223.432 188.113 221.824 188.881 220.456C189.673 219.088 190.753 218.044 192.121 217.324C193.489 216.604 195.025 216.244 196.729 216.244H197.305C199.009 216.244 200.545 216.604 201.913 217.324C203.281 218.044 204.349 219.088 205.117 220.456C205.909 221.824 206.305 223.432 206.305 225.28V226.324ZM200.977 224.344C200.977 222.88 200.605 221.764 199.861 220.996C199.141 220.228 198.193 219.844 197.017 219.844C195.841 219.844 194.881 220.228 194.137 220.996C193.417 221.764 193.057 222.88 193.057 224.344V227.26C193.057 228.724 193.417 229.84 194.137 230.608C194.881 231.376 195.841 231.76 197.017 231.76C198.193 231.76 199.141 231.376 199.861 230.608C200.605 229.84 200.977 228.724 200.977 227.26V224.344ZM214.713 219.304C216.225 217.264 218.181 216.244 220.581 216.244C222.453 216.244 223.989 216.748 225.189 217.756C226.413 218.764 227.025 220.228 227.025 222.148V235H221.769V223.3C221.769 222.364 221.493 221.596 220.941 220.996C220.413 220.372 219.729 220.06 218.889 220.06C217.953 220.06 217.149 220.42 216.477 221.14C215.805 221.836 215.469 222.688 215.469 223.696V235H210.213V216.604H214.137L214.713 219.304ZM241.666 234.676C241.186 234.868 240.55 235.024 239.758 235.144C238.99 235.288 238.306 235.36 237.706 235.36C235.858 235.36 234.466 234.964 233.53 234.172C232.594 233.38 232.126 232.06 232.126 230.212V220.204H230.11V216.604H232.306L234.142 210.736H237.382V216.604H241.666V220.204H237.382V229.312C237.382 230.272 237.562 230.92 237.922 231.256C238.306 231.592 238.81 231.76 239.434 231.76C239.722 231.76 240.094 231.712 240.55 231.616C241.006 231.52 241.378 231.412 241.666 231.292V234.676ZM255.385 222.904C255.385 222.16 255.181 221.524 254.773 220.996C254.365 220.444 253.717 220.168 252.829 220.168C251.989 220.168 251.341 220.504 250.885 221.176C250.453 221.824 250.237 222.64 250.237 223.624V235H245.053V216.604H248.941L249.589 219.304C249.685 219.04 249.925 218.668 250.309 218.188C250.717 217.708 251.293 217.264 252.037 216.856C252.805 216.448 253.705 216.244 254.737 216.244C256.393 216.244 257.665 216.76 258.553 217.792C259.465 218.824 259.921 220.192 259.921 221.896C259.921 222.256 259.897 222.616 259.849 222.976C259.825 223.336 259.801 223.588 259.777 223.732H255.385V222.904ZM273.934 222.58C273.934 221.764 273.67 221.104 273.142 220.6C272.638 220.096 271.81 219.844 270.658 219.844C269.986 219.844 269.41 219.964 268.93 220.204C268.45 220.42 268.078 220.696 267.814 221.032C267.574 221.368 267.454 221.68 267.454 221.968V222.256H262.378C262.33 221.968 262.306 221.752 262.306 221.608C262.306 220.576 262.642 219.652 263.314 218.836C264.01 218.02 264.97 217.384 266.194 216.928C267.418 216.472 268.822 216.244 270.406 216.244H271.162C273.754 216.244 275.722 216.76 277.066 217.792C278.41 218.8 279.082 220.192 279.082 221.968V230.464C279.082 230.896 279.178 231.22 279.37 231.436C279.586 231.652 279.838 231.76 280.126 231.76C280.366 231.76 280.63 231.712 280.918 231.616C281.206 231.52 281.434 231.436 281.602 231.364V234.604C280.714 235.108 279.658 235.36 278.434 235.36C277.114 235.36 276.106 235.096 275.41 234.568C274.714 234.016 274.306 233.248 274.186 232.264C272.506 234.328 270.442 235.36 267.994 235.36C266.17 235.36 264.67 234.988 263.494 234.244C262.318 233.5 261.73 232.084 261.73 229.996C261.73 228.292 262.21 226.996 263.17 226.108C264.154 225.196 265.51 224.584 267.238 224.272C268.966 223.96 271.198 223.804 273.934 223.804V222.58ZM273.934 226.756C271.654 226.756 269.95 226.984 268.822 227.44C267.718 227.872 267.166 228.592 267.166 229.6C267.166 230.392 267.382 230.956 267.814 231.292C268.27 231.604 268.954 231.76 269.866 231.76C270.49 231.76 271.114 231.592 271.738 231.256C272.362 230.92 272.878 230.44 273.286 229.816C273.718 229.192 273.934 228.496 273.934 227.728V226.756ZM288.682 227.548C288.682 228.748 288.994 229.756 289.618 230.572C290.242 231.364 291.082 231.76 292.138 231.76C293.242 231.76 294.106 231.424 294.73 230.752C295.378 230.056 295.702 229.036 295.702 227.692H300.67C300.67 229.396 300.298 230.824 299.554 231.976C298.834 233.128 297.874 233.98 296.674 234.532C295.474 235.084 294.154 235.36 292.714 235.36H292.138C289.45 235.36 287.314 234.568 285.73 232.984C284.146 231.376 283.354 229.156 283.354 226.324V225.28C283.354 223.408 283.726 221.8 284.47 220.456C285.238 219.088 286.282 218.044 287.602 217.324C288.922 216.604 290.434 216.244 292.138 216.244H292.714C294.13 216.244 295.438 216.556 296.638 217.18C297.862 217.78 298.834 218.668 299.554 219.844C300.298 220.996 300.67 222.364 300.67 223.948H295.45C295.45 222.7 295.174 221.704 294.622 220.96C294.07 220.216 293.254 219.844 292.174 219.844C291.094 219.844 290.242 220.276 289.618 221.14C288.994 221.98 288.682 223.048 288.682 224.344V227.548ZM314.58 234.676C314.1 234.868 313.464 235.024 312.672 235.144C311.904 235.288 311.22 235.36 310.62 235.36C308.772 235.36 307.38 234.964 306.444 234.172C305.508 233.38 305.04 232.06 305.04 230.212V220.204H303.024V216.604H305.22L307.056 210.736H310.296V216.604H314.58V220.204H310.296V229.312C310.296 230.272 310.476 230.92 310.836 231.256C311.22 231.592 311.724 231.76 312.348 231.76C312.636 231.76 313.008 231.712 313.464 231.616C313.92 231.52 314.292 231.412 314.58 231.292V234.676ZM317.931 209.08H323.259V213.22H317.931V209.08ZM317.967 235V216.604H323.223V235H317.967ZM332.487 219.304C333.999 217.264 335.955 216.244 338.355 216.244C340.227 216.244 341.763 216.748 342.963 217.756C344.187 218.764 344.799 220.228 344.799 222.148V235H339.543V223.3C339.543 222.364 339.267 221.596 338.715 220.996C338.187 220.372 337.503 220.06 336.663 220.06C335.727 220.06 334.923 220.42 334.251 221.14C333.579 221.836 333.243 222.688 333.243 223.696V235H327.987V216.604H331.911L332.487 219.304ZM362.103 230.824C363.783 230.824 365.067 231.304 365.955 232.264C366.867 233.2 367.323 234.436 367.323 235.972C367.323 237.076 367.011 238.072 366.387 238.96C365.763 239.848 364.911 240.532 363.831 241.012C362.775 241.516 361.599 241.768 360.303 241.768H352.707C351.243 241.768 350.007 241.36 348.999 240.544C348.015 239.752 347.523 238.648 347.523 237.232C347.523 236.368 347.775 235.588 348.279 234.892C348.807 234.172 349.467 233.632 350.259 233.272C349.707 232.912 349.287 232.468 348.999 231.94C348.711 231.412 348.567 230.836 348.567 230.212C348.567 229.324 348.855 228.556 349.431 227.908C350.007 227.236 350.751 226.756 351.663 226.468C350.847 225.964 350.211 225.328 349.755 224.56C349.299 223.768 349.071 222.928 349.071 222.04C349.071 220.336 349.731 218.944 351.051 217.864C352.395 216.784 354.351 216.244 356.919 216.244H357.495C358.623 216.244 359.631 216.388 360.519 216.676C361.503 216.1 362.187 215.512 362.571 214.912C362.955 214.312 363.171 213.772 363.219 213.292H367.323C367.323 215.836 366.051 217.42 363.507 218.044L363.471 218.152C364.743 219.232 365.379 220.528 365.379 222.04C365.379 223.096 365.079 224.068 364.479 224.956C363.879 225.82 363.027 226.516 361.923 227.044C360.843 227.548 359.595 227.8 358.179 227.8H355.695C354.975 227.8 354.411 227.956 354.003 228.268C353.619 228.58 353.427 228.928 353.427 229.312C353.427 229.792 353.607 230.164 353.967 230.428C354.351 230.692 354.927 230.824 355.695 230.824H362.103ZM354.111 222.04C354.111 222.88 354.411 223.54 355.011 224.02C355.611 224.476 356.367 224.704 357.279 224.704C358.215 224.704 358.983 224.476 359.583 224.02C360.183 223.54 360.483 222.88 360.483 222.04C360.483 221.2 360.183 220.552 359.583 220.096C358.983 219.616 358.215 219.376 357.279 219.376C356.367 219.376 355.611 219.616 355.011 220.096C354.411 220.552 354.111 221.2 354.111 222.04ZM360.159 238.528C360.783 238.528 361.323 238.336 361.779 237.952C362.235 237.592 362.463 237.16 362.463 236.656C362.463 236.176 362.271 235.768 361.887 235.432C361.503 235.12 360.999 234.964 360.375 234.964H354.111C353.583 234.964 353.127 235.132 352.743 235.468C352.359 235.828 352.167 236.248 352.167 236.728C352.167 237.208 352.359 237.628 352.743 237.988C353.127 238.348 353.583 238.528 354.111 238.528H360.159Z" fill="#9B7400"/>
<path d="M1.19 284C1.09667 284 1.05 283.918 1.05 283.755C1.05 283.335 1.24833 282.938 1.645 282.565C2.08833 282.145 2.38 281.853 2.52 281.69C2.66 281.503 2.77667 281.235 2.87 280.885C2.98667 280.535 3.115 279.917 3.255 279.03L5.355 266.185H5.215C4.32833 266.185 3.65167 266.278 3.185 266.465C2.71833 266.652 2.36833 266.85 2.135 267.06C1.90167 267.247 1.75 267.34 1.68 267.34C1.56333 267.34 1.505 267.258 1.505 267.095C1.505 266.955 1.52833 266.815 1.575 266.675C1.785 266.022 2.28667 265.485 3.08 265.065C3.89667 264.622 5.005 264.4 6.405 264.4C6.87167 264.4 7.71167 264.447 8.925 264.54C10.1383 264.633 11.025 264.68 11.585 264.68C12.705 264.68 13.51 264.587 14 264.4C14.5133 264.213 14.805 264.12 14.875 264.12C15.015 264.12 15.085 264.19 15.085 264.33C15.085 264.563 14.9333 264.843 14.63 265.17C14.35 265.473 13.9067 265.753 13.3 266.01C12.7167 266.243 11.9817 266.36 11.095 266.36C10.745 266.36 10.4183 266.348 10.115 266.325C9.81167 266.302 9.53167 266.278 9.275 266.255C8.645 266.185 8.03833 266.15 7.455 266.15L6.265 273.43H11.585C11.7483 273.43 11.83 273.488 11.83 273.605C11.83 273.745 11.7017 273.978 11.445 274.305C11.2117 274.608 10.92 274.888 10.57 275.145C10.2433 275.402 9.91667 275.53 9.59 275.53C9.45 275.53 9.32167 275.518 9.205 275.495C9.08833 275.472 8.97167 275.448 8.855 275.425C8.085 275.262 7.455 275.18 6.965 275.18H6.02L5.04 280.885C4.97 281.352 4.77167 281.748 4.445 282.075V282.11C4.935 282.273 5.30833 282.355 5.565 282.355C5.79833 282.355 6.03167 282.308 6.265 282.215C6.52167 282.098 6.685 282.04 6.755 282.04C6.87167 282.04 6.93 282.098 6.93 282.215C6.93 282.378 6.80167 282.588 6.545 282.845C5.775 283.615 5.16833 284 4.725 284C4.56167 284 4.24667 283.93 3.78 283.79C3.26667 283.603 2.88167 283.51 2.625 283.51C2.32167 283.51 2.01833 283.592 1.715 283.755C1.41167 283.918 1.23667 284 1.19 284ZM14.6089 284.28C13.9323 284.28 13.5939 283.662 13.5939 282.425C13.5939 281.935 13.6289 281.515 13.6989 281.165L15.3789 270.07C15.7523 267.503 16.2189 265.532 16.7789 264.155C17.3623 262.755 18.0506 261.74 18.8439 261.11C19.2873 260.76 19.7539 260.503 20.2439 260.34C20.7573 260.153 21.5156 259.943 22.5189 259.71C22.9623 259.617 23.2539 259.547 23.3939 259.5C23.5339 259.43 23.6273 259.395 23.6739 259.395C23.7906 259.395 23.8489 259.465 23.8489 259.605C23.8489 259.838 23.6739 260.118 23.3239 260.445C23.1139 260.632 22.9156 260.76 22.7289 260.83C22.5656 260.877 22.3439 260.912 22.0639 260.935C20.9906 261.028 20.1973 261.367 19.6839 261.95C18.7739 263 18.0973 264.948 17.6539 267.795L15.5889 281.095C15.5656 281.212 15.5539 281.375 15.5539 281.585C15.5539 281.982 15.6823 282.18 15.9389 282.18C16.5223 282.18 17.1756 281.352 17.8989 279.695C17.9923 279.485 18.0973 279.38 18.2139 279.38C18.3539 279.38 18.4239 279.52 18.4239 279.8C18.4239 280.43 18.2023 281.095 17.7589 281.795C17.3156 282.495 16.7906 283.09 16.1839 283.58C15.5773 284.047 15.0523 284.28 14.6089 284.28ZM21.6191 284.28C20.6624 284.28 20.1841 283.37 20.1841 281.55C20.1841 279.8 20.5574 278.073 21.3041 276.37C22.0741 274.667 23.1007 273.278 24.3841 272.205C25.6907 271.108 27.1024 270.56 28.6191 270.56C29.4124 270.56 30.0774 270.688 30.6141 270.945C30.4041 271.762 30.2407 272.462 30.1241 273.045L29.5641 275.845C28.9574 278.808 28.6191 280.558 28.5491 281.095C28.5257 281.212 28.5141 281.375 28.5141 281.585C28.5141 281.982 28.6424 282.18 28.8991 282.18C29.2024 282.18 29.4824 281.993 29.7391 281.62C29.9957 281.247 30.2991 280.698 30.6491 279.975C30.7657 279.765 30.8591 279.66 30.9291 279.66C31.0457 279.66 31.1041 279.765 31.1041 279.975L31.0341 280.43C30.8941 281.06 30.6257 281.678 30.2291 282.285C29.8324 282.868 29.3774 283.347 28.8641 283.72C28.3741 284.093 27.9307 284.28 27.5341 284.28C26.8807 284.28 26.5541 283.755 26.5541 282.705C26.5541 282.355 26.6007 281.923 26.6941 281.41L27.1841 278.96H27.1491C26.2391 280.547 25.2707 281.83 24.2441 282.81C23.2407 283.79 22.3657 284.28 21.6191 284.28ZM22.9491 281.97C23.4624 281.97 24.0574 281.562 24.7341 280.745C25.4341 279.928 26.0757 278.937 26.6591 277.77C27.2657 276.58 27.6857 275.507 27.9191 274.55L28.3741 272.73C27.7907 272.357 27.1957 272.17 26.5891 272.17C25.7724 272.17 25.0374 272.637 24.3841 273.57C23.7307 274.503 23.2057 275.635 22.8091 276.965C22.4357 278.295 22.2491 279.497 22.2491 280.57C22.2491 281.037 22.2957 281.387 22.3891 281.62C22.5057 281.853 22.6924 281.97 22.9491 281.97ZM35.1805 284.28C35.0171 284.28 34.9355 284.21 34.9355 284.07C34.9355 284 34.9821 283.86 35.0755 283.65C35.1921 283.44 35.2621 283.242 35.2855 283.055C35.3555 282.378 35.3905 281.678 35.3905 280.955C35.3905 279.882 35.3088 278.027 35.1455 275.39C35.0521 274.34 34.9588 273.64 34.8655 273.29C34.7955 272.917 34.6088 272.73 34.3055 272.73C34.0488 272.73 33.8621 272.858 33.7455 273.115C33.6288 273.348 33.4888 273.745 33.3255 274.305C33.2321 274.632 33.1155 274.795 32.9755 274.795C32.8355 274.795 32.7655 274.655 32.7655 274.375C32.7655 273.908 32.8705 273.372 33.0805 272.765C33.2905 272.158 33.5821 271.645 33.9555 271.225C34.3521 270.782 34.7838 270.56 35.2505 270.56C35.9971 270.56 36.5105 271.248 36.7905 272.625C37.0471 273.885 37.1988 276.218 37.2455 279.625C38.6221 277.035 39.6955 274.573 40.4655 272.24C40.7688 271.75 41.0605 271.353 41.3405 271.05C41.6205 270.723 41.8188 270.56 41.9355 270.56C42.0755 270.56 42.1455 270.793 42.1455 271.26L42.1805 273.22V274.13L42.6005 280.15C44.6538 276.743 45.6805 274.562 45.6805 273.605C45.6805 273.302 45.5755 273.057 45.3655 272.87C45.1788 272.683 45.0855 272.555 45.0855 272.485C45.0855 272.275 45.3071 271.902 45.7505 271.365C46.1938 270.828 46.5321 270.56 46.7655 270.56C46.9755 270.56 47.1505 270.723 47.2905 271.05C47.4538 271.377 47.5355 271.762 47.5355 272.205C47.5355 272.602 47.4305 273.033 47.2205 273.5C47.0338 273.967 46.5788 274.888 45.8555 276.265L42.8455 282.11C42.4955 282.787 42.1338 283.323 41.7605 283.72C41.4105 284.093 41.1071 284.28 40.8505 284.28C40.7105 284.28 40.6405 284.21 40.6405 284.07C40.6405 283.953 40.6871 283.79 40.7805 283.58C40.8738 283.347 40.9321 283.125 40.9555 282.915C41.0021 282.705 41.0255 282.402 41.0255 282.005C41.0255 280.932 40.9205 279.112 40.7105 276.545L40.6055 275.11H40.5705C39.7538 276.557 39.0888 277.805 38.5755 278.855C38.0855 279.905 37.7121 281.037 37.4555 282.25C37.1988 282.74 36.8371 283.207 36.3705 283.65C35.9271 284.07 35.5305 284.28 35.1805 284.28ZM50.0191 284.28C49.3424 284.28 49.0041 283.662 49.0041 282.425C49.0041 281.935 49.0391 281.515 49.1091 281.165L50.7891 270.07C51.1624 267.503 51.6291 265.532 52.1891 264.155C52.7724 262.755 53.4608 261.74 54.2541 261.11C54.6974 260.76 55.1641 260.503 55.6541 260.34C56.1674 260.153 56.9258 259.943 57.9291 259.71C58.3724 259.617 58.6641 259.547 58.8041 259.5C58.9441 259.43 59.0374 259.395 59.0841 259.395C59.2008 259.395 59.2591 259.465 59.2591 259.605C59.2591 259.838 59.0841 260.118 58.7341 260.445C58.5241 260.632 58.3258 260.76 58.1391 260.83C57.9758 260.877 57.7541 260.912 57.4741 260.935C56.4008 261.028 55.6074 261.367 55.0941 261.95C54.1841 263 53.5074 264.948 53.0641 267.795L50.9991 281.095C50.9758 281.212 50.9641 281.375 50.9641 281.585C50.9641 281.982 51.0924 282.18 51.3491 282.18C51.9324 282.18 52.5858 281.352 53.3091 279.695C53.4024 279.485 53.5074 279.38 53.6241 279.38C53.7641 279.38 53.8341 279.52 53.8341 279.8C53.8341 280.43 53.6124 281.095 53.1691 281.795C52.7258 282.495 52.2008 283.09 51.5941 283.58C50.9874 284.047 50.4624 284.28 50.0191 284.28ZM58.5301 284.28C57.6901 284.28 57.0135 283.965 56.5001 283.335C56.0101 282.682 55.7651 281.772 55.7651 280.605C55.7651 279.205 56.0918 277.712 56.7451 276.125C57.4218 274.538 58.2851 273.22 59.3351 272.17C60.3851 271.097 61.4468 270.56 62.5201 270.56C63.5001 270.56 63.9901 271.155 63.9901 272.345C63.9901 273.792 63.3835 275.157 62.1701 276.44C60.9801 277.723 59.5101 278.657 57.7601 279.24C57.7601 280.243 57.9235 280.978 58.2501 281.445C58.5768 281.888 59.0668 282.11 59.7201 282.11C60.3968 282.11 61.0151 281.9 61.5751 281.48C62.1351 281.037 62.6135 280.442 63.0101 279.695C63.0568 279.578 63.1151 279.485 63.1851 279.415C63.2551 279.322 63.3251 279.275 63.3951 279.275C63.5585 279.275 63.6401 279.392 63.6401 279.625C63.6401 280.138 63.3835 280.768 62.8701 281.515C62.3568 282.262 61.7035 282.915 60.9101 283.475C60.1401 284.012 59.3468 284.28 58.5301 284.28ZM58.6701 277.735C59.1368 277.735 59.6501 277.56 60.2101 277.21C60.7701 276.86 61.2368 276.382 61.6101 275.775C62.0068 275.168 62.2051 274.492 62.2051 273.745C62.2051 272.858 61.8901 272.415 61.2601 272.415C60.5135 272.415 59.8251 272.987 59.1951 274.13C58.5885 275.25 58.1918 276.417 58.0051 277.63C58.1218 277.7 58.3435 277.735 58.6701 277.735ZM67.2905 284.28C66.7072 284.28 66.2055 284.128 65.7855 283.825C65.3655 283.498 65.0972 283.067 64.9805 282.53C64.9338 282.39 64.9805 282.157 65.1205 281.83C65.2838 281.503 65.5055 281.177 65.7855 280.85C65.9488 280.663 66.0772 280.57 66.1705 280.57C66.2405 280.57 66.3105 280.652 66.3805 280.815C66.9405 282.122 67.7222 282.775 68.7255 282.775C69.2388 282.775 69.6355 282.623 69.9155 282.32C70.2188 282.017 70.3705 281.597 70.3705 281.06C70.3705 280.383 69.9622 279.462 69.1455 278.295L68.5505 277.455C68.0838 276.825 67.7572 276.3 67.5705 275.88C67.4072 275.46 67.3255 275.017 67.3255 274.55C67.3255 273.803 67.5238 273.127 67.9205 272.52C68.3405 271.913 68.8772 271.435 69.5305 271.085C70.1838 270.735 70.8722 270.56 71.5955 270.56C72.2955 270.56 72.8088 270.677 73.1355 270.91C73.4622 271.143 73.6255 271.493 73.6255 271.96C73.6255 272.287 73.5088 272.625 73.2755 272.975C73.1355 273.185 73.0188 273.29 72.9255 273.29C72.8322 273.29 72.7272 273.185 72.6105 272.975C72.4005 272.602 72.1438 272.345 71.8405 272.205C71.5605 272.042 71.1988 271.96 70.7555 271.96C70.2422 271.96 69.8222 272.1 69.4955 272.38C69.1688 272.637 69.0055 272.987 69.0055 273.43C69.0055 273.687 69.0872 273.978 69.2505 274.305C69.4138 274.632 69.7172 275.098 70.1605 275.705L70.7555 276.51C71.2688 277.21 71.6305 277.817 71.8405 278.33C72.0505 278.82 72.1555 279.333 72.1555 279.87C72.1555 280.57 71.9222 281.27 71.4555 281.97C71.0122 282.647 70.4172 283.207 69.6705 283.65C68.9238 284.07 68.1305 284.28 67.2905 284.28ZM76.1089 284.28C75.5255 284.28 75.0239 284.128 74.6039 283.825C74.1839 283.498 73.9155 283.067 73.7989 282.53C73.7522 282.39 73.7989 282.157 73.9389 281.83C74.1022 281.503 74.3239 281.177 74.6039 280.85C74.7672 280.663 74.8955 280.57 74.9889 280.57C75.0589 280.57 75.1289 280.652 75.1989 280.815C75.7589 282.122 76.5405 282.775 77.5439 282.775C78.0572 282.775 78.4539 282.623 78.7339 282.32C79.0372 282.017 79.1889 281.597 79.1889 281.06C79.1889 280.383 78.7805 279.462 77.9639 278.295L77.3689 277.455C76.9022 276.825 76.5755 276.3 76.3889 275.88C76.2255 275.46 76.1439 275.017 76.1439 274.55C76.1439 273.803 76.3422 273.127 76.7389 272.52C77.1589 271.913 77.6955 271.435 78.3489 271.085C79.0022 270.735 79.6905 270.56 80.4139 270.56C81.1139 270.56 81.6272 270.677 81.9539 270.91C82.2805 271.143 82.4439 271.493 82.4439 271.96C82.4439 272.287 82.3272 272.625 82.0939 272.975C81.9539 273.185 81.8372 273.29 81.7439 273.29C81.6505 273.29 81.5455 273.185 81.4289 272.975C81.2189 272.602 80.9622 272.345 80.6589 272.205C80.3789 272.042 80.0172 271.96 79.5739 271.96C79.0605 271.96 78.6405 272.1 78.3139 272.38C77.9872 272.637 77.8239 272.987 77.8239 273.43C77.8239 273.687 77.9055 273.978 78.0689 274.305C78.2322 274.632 78.5355 275.098 78.9789 275.705L79.5739 276.51C80.0872 277.21 80.4489 277.817 80.6589 278.33C80.8689 278.82 80.9739 279.333 80.9739 279.87C80.9739 280.57 80.7405 281.27 80.2739 281.97C79.8305 282.647 79.2355 283.207 78.4889 283.65C77.7422 284.07 76.9489 284.28 76.1089 284.28ZM105.183 284.28C104.227 284.28 103.492 283.568 102.978 282.145L101.263 277.56C101.053 276.977 100.843 276.545 100.633 276.265C100.423 275.985 100.108 275.775 99.6882 275.635C99.2915 275.495 98.7199 275.425 97.9732 275.425L97.0632 280.885C96.9932 281.352 96.8182 281.748 96.5382 282.075V282.11C96.6082 282.133 96.7365 282.18 96.9232 282.25C97.1332 282.32 97.3315 282.355 97.5182 282.355C97.7515 282.355 97.9849 282.308 98.2182 282.215C98.4515 282.098 98.6032 282.04 98.6732 282.04C98.7899 282.04 98.8482 282.098 98.8482 282.215C98.8482 282.378 98.7315 282.588 98.4982 282.845C97.7749 283.615 97.2032 284 96.7832 284C96.6199 284 96.3049 283.93 95.8382 283.79C95.3249 283.603 94.9399 283.51 94.6832 283.51C94.3799 283.51 94.0765 283.592 93.7732 283.755C93.4699 283.918 93.2949 284 93.2482 284C93.1549 284 93.1082 283.907 93.1082 283.72C93.1082 283.37 93.3182 282.985 93.7382 282.565C94.1582 282.168 94.4382 281.888 94.5782 281.725C94.7182 281.538 94.8232 281.293 94.8932 280.99C94.9632 280.687 95.0799 280.068 95.2432 279.135L96.9582 269.09C97.0515 268.623 97.3782 268.157 97.9382 267.69C98.5215 267.223 99.0349 266.99 99.4782 266.99C99.6649 266.99 99.7582 267.037 99.7582 267.13C99.7582 267.2 99.6649 267.363 99.4782 267.62C99.3149 267.853 99.1749 268.285 99.0582 268.915L98.2882 274.025C98.5215 274.095 98.9649 274.13 99.6182 274.13C100.948 274.13 101.987 273.722 102.733 272.905C103.503 272.065 103.888 270.957 103.888 269.58C103.888 266.967 102.453 265.66 99.5832 265.66C97.2965 265.66 95.4065 266.488 93.9132 268.145C93.7499 268.308 93.6099 268.448 93.4932 268.565C93.3765 268.682 93.2715 268.74 93.1782 268.74C93.0615 268.74 93.0032 268.67 93.0032 268.53C93.0032 268.413 93.0149 268.308 93.0382 268.215C93.2015 267.562 93.6215 266.92 94.2982 266.29C94.9749 265.66 95.8499 265.147 96.9232 264.75C97.9965 264.33 99.1865 264.12 100.493 264.12C102.243 264.12 103.608 264.517 104.588 265.31C105.568 266.103 106.058 267.223 106.058 268.67C106.058 270.117 105.592 271.4 104.658 272.52C103.725 273.64 102.535 274.41 101.088 274.83C102.138 275.133 102.873 275.88 103.293 277.07L104.728 280.885C104.915 281.352 105.102 281.702 105.288 281.935C105.475 282.145 105.732 282.25 106.058 282.25C106.525 282.25 106.968 282.005 107.388 281.515C107.458 281.422 107.528 281.317 107.598 281.2C107.692 281.083 107.785 281.025 107.878 281.025C108.018 281.025 108.088 281.153 108.088 281.41C108.088 282.11 107.785 282.763 107.178 283.37C106.572 283.977 105.907 284.28 105.183 284.28ZM111.816 284.28C110.976 284.28 110.3 283.965 109.786 283.335C109.296 282.682 109.051 281.772 109.051 280.605C109.051 279.205 109.378 277.712 110.031 276.125C110.708 274.538 111.571 273.22 112.621 272.17C113.671 271.097 114.733 270.56 115.806 270.56C116.786 270.56 117.276 271.155 117.276 272.345C117.276 273.792 116.67 275.157 115.456 276.44C114.266 277.723 112.796 278.657 111.046 279.24C111.046 280.243 111.21 280.978 111.536 281.445C111.863 281.888 112.353 282.11 113.006 282.11C113.683 282.11 114.301 281.9 114.861 281.48C115.421 281.037 115.9 280.442 116.296 279.695C116.343 279.578 116.401 279.485 116.471 279.415C116.541 279.322 116.611 279.275 116.681 279.275C116.845 279.275 116.926 279.392 116.926 279.625C116.926 280.138 116.67 280.768 116.156 281.515C115.643 282.262 114.99 282.915 114.196 283.475C113.426 284.012 112.633 284.28 111.816 284.28ZM111.956 277.735C112.423 277.735 112.936 277.56 113.496 277.21C114.056 276.86 114.523 276.382 114.896 275.775C115.293 275.168 115.491 274.492 115.491 273.745C115.491 272.858 115.176 272.415 114.546 272.415C113.8 272.415 113.111 272.987 112.481 274.13C111.875 275.25 111.478 276.417 111.291 277.63C111.408 277.7 111.63 277.735 111.956 277.735ZM120.577 284.28C119.993 284.28 119.492 284.128 119.072 283.825C118.652 283.498 118.383 283.067 118.267 282.53C118.22 282.39 118.267 282.157 118.407 281.83C118.57 281.503 118.792 281.177 119.072 280.85C119.235 280.663 119.363 280.57 119.457 280.57C119.527 280.57 119.597 280.652 119.667 280.815C120.227 282.122 121.008 282.775 122.012 282.775C122.525 282.775 122.922 282.623 123.202 282.32C123.505 282.017 123.657 281.597 123.657 281.06C123.657 280.383 123.248 279.462 122.432 278.295L121.837 277.455C121.37 276.825 121.043 276.3 120.857 275.88C120.693 275.46 120.612 275.017 120.612 274.55C120.612 273.803 120.81 273.127 121.207 272.52C121.627 271.913 122.163 271.435 122.817 271.085C123.47 270.735 124.158 270.56 124.882 270.56C125.582 270.56 126.095 270.677 126.422 270.91C126.748 271.143 126.912 271.493 126.912 271.96C126.912 272.287 126.795 272.625 126.562 272.975C126.422 273.185 126.305 273.29 126.212 273.29C126.118 273.29 126.013 273.185 125.897 272.975C125.687 272.602 125.43 272.345 125.127 272.205C124.847 272.042 124.485 271.96 124.042 271.96C123.528 271.96 123.108 272.1 122.782 272.38C122.455 272.637 122.292 272.987 122.292 273.43C122.292 273.687 122.373 273.978 122.537 274.305C122.7 274.632 123.003 275.098 123.447 275.705L124.042 276.51C124.555 277.21 124.917 277.817 125.127 278.33C125.337 278.82 125.442 279.333 125.442 279.87C125.442 280.57 125.208 281.27 124.742 281.97C124.298 282.647 123.703 283.207 122.957 283.65C122.21 284.07 121.417 284.28 120.577 284.28ZM130.922 284.28C130.129 284.28 129.732 283.685 129.732 282.495C129.732 281.842 129.825 281.013 130.012 280.01L130.992 274.2C131.062 273.71 131.097 273.337 131.097 273.08C131.097 272.777 131.015 272.625 130.852 272.625C130.432 272.625 129.93 273.185 129.347 274.305C129.23 274.562 129.125 274.76 129.032 274.9C128.939 275.04 128.857 275.11 128.787 275.11C128.67 275.11 128.612 274.993 128.612 274.76C128.612 274.387 128.799 273.862 129.172 273.185C129.569 272.485 130.047 271.878 130.607 271.365C131.167 270.828 131.704 270.56 132.217 270.56C132.52 270.56 132.765 270.688 132.952 270.945C133.139 271.202 133.232 271.552 133.232 271.995C133.232 272.135 133.209 272.345 133.162 272.625L131.832 280.955C131.809 281.072 131.797 281.235 131.797 281.445C131.797 281.842 131.937 282.04 132.217 282.04C132.847 282.04 133.512 281.632 134.212 280.815C134.935 279.975 135.577 278.972 136.137 277.805C136.72 276.638 137.094 275.612 137.257 274.725L137.642 272.66C137.805 271.983 138.109 271.47 138.552 271.12C139.019 270.747 139.45 270.56 139.847 270.56C139.987 270.56 140.057 270.607 140.057 270.7C140.057 270.77 140.022 270.887 139.952 271.05C139.882 271.213 139.824 271.4 139.777 271.61C139.614 272.287 139.217 274.387 138.587 277.91L138.062 280.64C138.039 280.803 137.992 281.013 137.922 281.27C137.875 281.503 137.852 281.69 137.852 281.83C137.852 282.11 137.945 282.25 138.132 282.25C138.435 282.25 138.762 282.017 139.112 281.55C139.485 281.06 139.789 280.535 140.022 279.975C140.115 279.765 140.209 279.66 140.302 279.66C140.419 279.66 140.477 279.753 140.477 279.94L140.407 280.43C140.267 281.107 139.999 281.748 139.602 282.355C139.229 282.938 138.797 283.405 138.307 283.755C137.817 284.105 137.362 284.28 136.942 284.28C136.195 284.28 135.845 283.697 135.892 282.53C135.939 282.04 136.055 281.317 136.242 280.36C136.265 280.197 136.3 280.022 136.347 279.835C136.394 279.625 136.44 279.38 136.487 279.1H136.452C135.472 280.663 134.469 281.923 133.442 282.88C132.439 283.813 131.599 284.28 130.922 284.28ZM143.74 284.28C143.063 284.28 142.725 283.662 142.725 282.425C142.725 281.935 142.76 281.515 142.83 281.165L144.51 270.07C144.883 267.503 145.35 265.532 145.91 264.155C146.493 262.755 147.181 261.74 147.975 261.11C148.418 260.76 148.885 260.503 149.375 260.34C149.888 260.153 150.646 259.943 151.65 259.71C152.093 259.617 152.385 259.547 152.525 259.5C152.665 259.43 152.758 259.395 152.805 259.395C152.921 259.395 152.98 259.465 152.98 259.605C152.98 259.838 152.805 260.118 152.455 260.445C152.245 260.632 152.046 260.76 151.86 260.83C151.696 260.877 151.475 260.912 151.195 260.935C150.121 261.028 149.328 261.367 148.815 261.95C147.905 263 147.228 264.948 146.785 267.795L144.72 281.095C144.696 281.212 144.685 281.375 144.685 281.585C144.685 281.982 144.813 282.18 145.07 282.18C145.653 282.18 146.306 281.352 147.03 279.695C147.123 279.485 147.228 279.38 147.345 279.38C147.485 279.38 147.555 279.52 147.555 279.8C147.555 280.43 147.333 281.095 146.89 281.795C146.446 282.495 145.921 283.09 145.315 283.58C144.708 284.047 144.183 284.28 143.74 284.28ZM152.706 284.28C151.679 284.28 151.166 283.568 151.166 282.145C151.166 281.678 151.201 281.177 151.271 280.64C151.364 280.08 151.422 279.718 151.446 279.555L152.601 272.31H149.766C149.672 272.31 149.626 272.263 149.626 272.17C149.626 271.983 149.836 271.715 150.256 271.365C150.676 271.015 150.967 270.84 151.131 270.84H152.846L153.126 269.09C153.219 268.483 153.511 267.935 154.001 267.445C154.491 266.955 154.992 266.71 155.506 266.71C155.599 266.71 155.646 266.757 155.646 266.85C155.646 266.92 155.564 267.142 155.401 267.515C155.237 267.865 155.121 268.25 155.051 268.67L154.701 270.84H157.466C157.582 270.84 157.641 270.898 157.641 271.015C157.641 271.155 157.419 271.412 156.976 271.785C156.532 272.135 156.241 272.31 156.101 272.31H154.526L153.371 279.52C153.184 280.687 153.091 281.398 153.091 281.655C153.091 282.285 153.301 282.6 153.721 282.6C154.024 282.6 154.339 282.46 154.666 282.18C155.016 281.877 155.319 281.457 155.576 280.92C155.599 280.897 155.622 280.862 155.646 280.815C155.669 280.768 155.704 280.745 155.751 280.745C155.844 280.745 155.891 280.873 155.891 281.13C155.891 281.503 155.727 281.947 155.401 282.46C155.074 282.95 154.654 283.382 154.141 283.755C153.651 284.105 153.172 284.28 152.706 284.28ZM159.678 284.28C159.095 284.28 158.593 284.128 158.173 283.825C157.753 283.498 157.485 283.067 157.368 282.53C157.322 282.39 157.368 282.157 157.508 281.83C157.672 281.503 157.893 281.177 158.173 280.85C158.337 280.663 158.465 280.57 158.558 280.57C158.628 280.57 158.698 280.652 158.768 280.815C159.328 282.122 160.11 282.775 161.113 282.775C161.627 282.775 162.023 282.623 162.303 282.32C162.607 282.017 162.758 281.597 162.758 281.06C162.758 280.383 162.35 279.462 161.533 278.295L160.938 277.455C160.472 276.825 160.145 276.3 159.958 275.88C159.795 275.46 159.713 275.017 159.713 274.55C159.713 273.803 159.912 273.127 160.308 272.52C160.728 271.913 161.265 271.435 161.918 271.085C162.572 270.735 163.26 270.56 163.983 270.56C164.683 270.56 165.197 270.677 165.523 270.91C165.85 271.143 166.013 271.493 166.013 271.96C166.013 272.287 165.897 272.625 165.663 272.975C165.523 273.185 165.407 273.29 165.313 273.29C165.22 273.29 165.115 273.185 164.998 272.975C164.788 272.602 164.532 272.345 164.228 272.205C163.948 272.042 163.587 271.96 163.143 271.96C162.63 271.96 162.21 272.1 161.883 272.38C161.557 272.637 161.393 272.987 161.393 273.43C161.393 273.687 161.475 273.978 161.638 274.305C161.802 274.632 162.105 275.098 162.548 275.705L163.143 276.51C163.657 277.21 164.018 277.817 164.228 278.33C164.438 278.82 164.543 279.333 164.543 279.87C164.543 280.57 164.31 281.27 163.843 281.97C163.4 282.647 162.805 283.207 162.058 283.65C161.312 284.07 160.518 284.28 159.678 284.28ZM168.056 284.28C167.799 284.28 167.589 284.187 167.426 284C167.263 283.79 167.181 283.533 167.181 283.23C167.181 282.74 167.391 282.262 167.811 281.795C168.254 281.305 168.686 281.06 169.106 281.06C169.363 281.06 169.573 281.165 169.736 281.375C169.899 281.562 169.981 281.807 169.981 282.11C169.981 282.6 169.771 283.09 169.351 283.58C168.931 284.047 168.499 284.28 168.056 284.28ZM181.044 284C180.928 284 180.869 283.93 180.869 283.79C180.869 283.393 181.079 283.008 181.499 282.635C181.966 282.192 182.293 281.772 182.479 281.375C182.666 280.978 182.853 280.208 183.039 279.065L185.139 266.185H184.999C184.113 266.185 183.436 266.278 182.969 266.465C182.503 266.652 182.153 266.85 181.919 267.06C181.686 267.247 181.534 267.34 181.464 267.34C181.348 267.34 181.289 267.258 181.289 267.095C181.289 266.955 181.313 266.815 181.359 266.675C181.569 266.022 182.083 265.485 182.899 265.065C183.716 264.622 184.824 264.4 186.224 264.4C186.691 264.4 187.508 264.447 188.674 264.54C189.888 264.633 190.798 264.68 191.404 264.68C192.501 264.68 193.306 264.587 193.819 264.4C194.333 264.213 194.624 264.12 194.694 264.12C194.834 264.12 194.904 264.19 194.904 264.33C194.904 264.563 194.753 264.843 194.449 265.17C194.169 265.473 193.726 265.753 193.119 266.01C192.513 266.243 191.766 266.36 190.879 266.36C190.319 266.36 189.724 266.325 189.094 266.255C188.861 266.232 188.581 266.208 188.254 266.185C187.951 266.162 187.613 266.15 187.239 266.15L186.154 272.975H191.439C191.603 272.975 191.684 273.033 191.684 273.15C191.684 273.29 191.568 273.523 191.334 273.85C191.101 274.153 190.809 274.433 190.459 274.69C190.109 274.923 189.771 275.04 189.444 275.04C189.258 275.04 189.024 275.005 188.744 274.935C187.974 274.772 187.344 274.69 186.854 274.69H185.909L184.964 280.22C184.918 280.547 184.824 280.862 184.684 281.165C184.568 281.468 184.451 281.69 184.334 281.83V281.865C185.221 282.098 186.224 282.215 187.344 282.215C189.048 282.215 190.541 281.807 191.824 280.99C191.988 280.897 192.104 280.85 192.174 280.85C192.314 280.85 192.384 280.943 192.384 281.13C192.384 281.527 192.128 281.947 191.614 282.39C191.124 282.833 190.471 283.218 189.654 283.545C188.861 283.848 188.056 284 187.239 284C186.679 284 185.816 283.907 184.649 283.72C183.669 283.58 183.063 283.51 182.829 283.51C182.433 283.51 182.059 283.592 181.709 283.755C181.359 283.918 181.138 284 181.044 284ZM197.634 284.28C197.401 284.28 197.261 284.187 197.214 284C197.168 283.813 197.133 283.347 197.109 282.6C197.109 281.317 197.039 279.788 196.899 278.015C196.736 276.078 196.526 274.713 196.269 273.92C196.036 273.127 195.744 272.73 195.394 272.73C195.161 272.73 194.986 272.847 194.869 273.08C194.753 273.313 194.601 273.722 194.414 274.305C194.391 274.422 194.344 274.538 194.274 274.655C194.228 274.748 194.158 274.795 194.064 274.795C193.924 274.795 193.854 274.655 193.854 274.375C193.854 273.908 193.959 273.372 194.169 272.765C194.403 272.158 194.706 271.645 195.079 271.225C195.476 270.782 195.908 270.56 196.374 270.56C197.238 270.56 197.844 271.167 198.194 272.38C198.544 273.593 198.801 275.203 198.964 277.21C199.058 278.377 199.116 279.228 199.139 279.765C199.163 280.278 199.186 280.617 199.209 280.78C199.233 281.107 199.314 281.27 199.454 281.27C199.828 281.27 200.294 280.873 200.854 280.08C201.414 279.287 201.904 278.353 202.324 277.28C202.744 276.207 202.954 275.297 202.954 274.55C202.954 274.2 202.908 273.92 202.814 273.71C202.744 273.5 202.628 273.302 202.464 273.115C202.324 272.905 202.254 272.742 202.254 272.625C202.254 272.345 202.476 271.937 202.919 271.4C203.386 270.84 203.736 270.56 203.969 270.56C204.156 270.56 204.331 270.735 204.494 271.085C204.681 271.412 204.774 271.843 204.774 272.38C204.774 273.617 204.354 275.192 203.514 277.105C202.674 279.018 201.683 280.698 200.539 282.145C199.396 283.568 198.428 284.28 197.634 284.28ZM208.545 284.28C207.705 284.28 207.028 283.965 206.515 283.335C206.025 282.682 205.78 281.772 205.78 280.605C205.78 279.205 206.106 277.712 206.76 276.125C207.436 274.538 208.3 273.22 209.35 272.17C210.4 271.097 211.461 270.56 212.535 270.56C213.515 270.56 214.005 271.155 214.005 272.345C214.005 273.792 213.398 275.157 212.185 276.44C210.995 277.723 209.525 278.657 207.775 279.24C207.775 280.243 207.938 280.978 208.265 281.445C208.591 281.888 209.081 282.11 209.735 282.11C210.411 282.11 211.03 281.9 211.59 281.48C212.15 281.037 212.628 280.442 213.025 279.695C213.071 279.578 213.13 279.485 213.2 279.415C213.27 279.322 213.34 279.275 213.41 279.275C213.573 279.275 213.655 279.392 213.655 279.625C213.655 280.138 213.398 280.768 212.885 281.515C212.371 282.262 211.718 282.915 210.925 283.475C210.155 284.012 209.361 284.28 208.545 284.28ZM208.685 277.735C209.151 277.735 209.665 277.56 210.225 277.21C210.785 276.86 211.251 276.382 211.625 275.775C212.021 275.168 212.22 274.492 212.22 273.745C212.22 272.858 211.905 272.415 211.275 272.415C210.528 272.415 209.84 272.987 209.21 274.13C208.603 275.25 208.206 276.417 208.02 277.63C208.136 277.7 208.358 277.735 208.685 277.735ZM216.404 284.28C216.241 284.28 216.159 284.233 216.159 284.14C216.159 284.093 216.218 283.977 216.334 283.79C216.451 283.58 216.533 283.312 216.579 282.985L216.964 280.85C217.268 279.147 217.536 277.607 217.769 276.23C218.003 274.853 218.119 273.92 218.119 273.43C218.119 273.127 218.096 272.917 218.049 272.8C218.026 272.683 217.944 272.625 217.804 272.625C217.641 272.625 217.419 272.765 217.139 273.045C216.859 273.325 216.614 273.652 216.404 274.025C216.311 274.188 216.229 274.34 216.159 274.48C216.089 274.597 216.019 274.69 215.949 274.76C215.903 274.807 215.856 274.83 215.809 274.83C215.669 274.83 215.599 274.725 215.599 274.515C215.599 274.165 215.798 273.675 216.194 273.045C216.614 272.392 217.093 271.82 217.629 271.33C218.189 270.817 218.691 270.56 219.134 270.56C219.484 270.56 219.729 270.7 219.869 270.98C220.009 271.26 220.079 271.703 220.079 272.31C220.079 273.103 219.904 274.223 219.554 275.67H219.589C221.386 272.263 223.043 270.56 224.559 270.56C224.979 270.56 225.294 270.677 225.504 270.91C225.714 271.12 225.819 271.423 225.819 271.82C225.819 272.427 225.633 273.045 225.259 273.675C224.886 274.282 224.536 274.585 224.209 274.585C224.116 274.585 224.058 274.562 224.034 274.515C224.034 274.445 224.046 274.375 224.069 274.305C224.116 273.978 224.139 273.78 224.139 273.71C224.139 273.243 223.894 273.01 223.404 273.01C222.821 273.01 222.238 273.348 221.654 274.025C221.071 274.702 220.558 275.53 220.114 276.51C219.694 277.49 219.391 278.388 219.204 279.205C218.994 280.068 218.854 280.967 218.784 281.9C218.761 282.25 218.598 282.612 218.294 282.985C217.991 283.358 217.653 283.673 217.279 283.93C216.906 284.163 216.614 284.28 216.404 284.28ZM227.445 295.27C226.372 295.27 225.543 294.85 224.96 294.01C224.377 293.17 224.085 292.237 224.085 291.21C224.085 290.58 224.202 290.078 224.435 289.705C224.645 289.355 224.89 289.11 225.17 288.97C225.427 288.83 225.625 288.76 225.765 288.76C225.858 288.76 225.905 288.853 225.905 289.04C225.905 291.98 226.838 293.45 228.705 293.45C230.058 293.45 231.108 292.657 231.855 291.07C232.135 290.463 232.392 289.693 232.625 288.76C232.858 287.85 233.173 286.462 233.57 284.595L233.92 282.915L234.76 279.03H234.725C234.282 279.963 233.745 280.838 233.115 281.655C232.485 282.448 231.867 283.09 231.26 283.58C230.677 284.047 230.198 284.28 229.825 284.28C229.405 284.28 229.113 283.965 228.95 283.335C228.787 282.705 228.717 281.935 228.74 281.025L228.985 273.99C229.008 273.453 228.997 273.068 228.95 272.835C228.903 272.578 228.763 272.45 228.53 272.45C228.273 272.45 227.993 272.613 227.69 272.94C227.41 273.243 227.153 273.652 226.92 274.165C226.78 274.492 226.652 274.655 226.535 274.655C226.395 274.655 226.325 274.538 226.325 274.305C226.325 273.838 226.488 273.313 226.815 272.73C227.165 272.123 227.597 271.61 228.11 271.19C228.623 270.77 229.113 270.56 229.58 270.56C230.117 270.56 230.478 270.828 230.665 271.365C230.852 271.878 230.945 272.567 230.945 273.43L230.91 274.41L230.665 279.065C230.618 280.045 230.63 280.733 230.7 281.13C230.793 281.503 230.968 281.69 231.225 281.69C231.645 281.69 232.135 281.293 232.695 280.5C233.255 279.707 233.78 278.738 234.27 277.595C234.783 276.452 235.168 275.378 235.425 274.375L235.845 272.66C236.008 271.96 236.335 271.435 236.825 271.085C237.315 270.735 237.758 270.56 238.155 270.56C238.295 270.56 238.365 270.607 238.365 270.7C238.365 270.817 238.283 271.073 238.12 271.47C237.887 272.077 237.642 273.057 237.385 274.41L235.88 282.425C235.833 282.682 235.752 283.16 235.635 283.86C235.378 285.283 235.157 286.368 234.97 287.115C234.807 287.862 234.55 288.608 234.2 289.355C233.873 290.125 233.395 290.907 232.765 291.7C231.925 292.82 231.038 293.695 230.105 294.325C229.172 294.955 228.285 295.27 227.445 295.27ZM248.833 284C248.74 284 248.693 283.907 248.693 283.72C248.693 283.37 248.903 282.985 249.323 282.565C249.743 282.168 250.023 281.888 250.163 281.725C250.303 281.538 250.408 281.293 250.478 280.99C250.548 280.687 250.665 280.068 250.828 279.135L252.543 269.09C252.637 268.623 252.963 268.157 253.523 267.69C254.107 267.223 254.62 266.99 255.063 266.99C255.273 266.99 255.378 267.037 255.378 267.13C255.378 267.2 255.285 267.363 255.098 267.62C254.912 267.877 254.772 268.308 254.678 268.915L253.838 274.305C254.072 274.375 254.492 274.41 255.098 274.41C256.475 274.41 257.595 273.955 258.458 273.045C259.322 272.112 259.753 270.957 259.753 269.58C259.753 268.297 259.357 267.328 258.563 266.675C257.77 265.998 256.638 265.66 255.168 265.66C252.835 265.66 250.945 266.488 249.498 268.145C249.358 268.308 249.23 268.448 249.113 268.565C248.997 268.682 248.892 268.74 248.798 268.74C248.682 268.74 248.623 268.67 248.623 268.53L248.658 268.215C248.822 267.515 249.242 266.85 249.918 266.22C250.595 265.59 251.47 265.088 252.543 264.715C253.617 264.318 254.795 264.12 256.078 264.12C257.852 264.12 259.275 264.517 260.348 265.31C261.422 266.103 261.958 267.212 261.958 268.635C261.958 269.872 261.538 271.038 260.698 272.135C259.882 273.208 258.82 274.095 257.513 274.795C256.207 275.472 254.865 275.868 253.488 275.985L252.648 280.885C252.578 281.352 252.403 281.748 252.123 282.075V282.11C252.193 282.133 252.322 282.18 252.508 282.25C252.718 282.32 252.917 282.355 253.103 282.355C253.337 282.355 253.57 282.308 253.803 282.215C254.037 282.098 254.188 282.04 254.258 282.04C254.375 282.04 254.433 282.11 254.433 282.25C254.433 282.413 254.317 282.612 254.083 282.845C253.36 283.615 252.788 284 252.368 284C252.205 284 251.89 283.93 251.423 283.79C250.91 283.603 250.525 283.51 250.268 283.51C249.965 283.51 249.662 283.592 249.358 283.755C249.078 283.918 248.903 284 248.833 284ZM263.23 284.28C263.067 284.28 262.985 284.233 262.985 284.14C262.985 284.093 263.044 283.977 263.16 283.79C263.277 283.58 263.359 283.312 263.405 282.985L263.79 280.85C264.094 279.147 264.362 277.607 264.595 276.23C264.829 274.853 264.945 273.92 264.945 273.43C264.945 273.127 264.922 272.917 264.875 272.8C264.852 272.683 264.77 272.625 264.63 272.625C264.467 272.625 264.245 272.765 263.965 273.045C263.685 273.325 263.44 273.652 263.23 274.025C263.137 274.188 263.055 274.34 262.985 274.48C262.915 274.597 262.845 274.69 262.775 274.76C262.729 274.807 262.682 274.83 262.635 274.83C262.495 274.83 262.425 274.725 262.425 274.515C262.425 274.165 262.624 273.675 263.02 273.045C263.44 272.392 263.919 271.82 264.455 271.33C265.015 270.817 265.517 270.56 265.96 270.56C266.31 270.56 266.555 270.7 266.695 270.98C266.835 271.26 266.905 271.703 266.905 272.31C266.905 273.103 266.73 274.223 266.38 275.67H266.415C268.212 272.263 269.869 270.56 271.385 270.56C271.805 270.56 272.12 270.677 272.33 270.91C272.54 271.12 272.645 271.423 272.645 271.82C272.645 272.427 272.459 273.045 272.085 273.675C271.712 274.282 271.362 274.585 271.035 274.585C270.942 274.585 270.884 274.562 270.86 274.515C270.86 274.445 270.872 274.375 270.895 274.305C270.942 273.978 270.965 273.78 270.965 273.71C270.965 273.243 270.72 273.01 270.23 273.01C269.647 273.01 269.064 273.348 268.48 274.025C267.897 274.702 267.384 275.53 266.94 276.51C266.52 277.49 266.217 278.388 266.03 279.205C265.82 280.068 265.68 280.967 265.61 281.9C265.587 282.25 265.424 282.612 265.12 282.985C264.817 283.358 264.479 283.673 264.105 283.93C263.732 284.163 263.44 284.28 263.23 284.28ZM274.571 284.28C273.778 284.28 273.183 283.977 272.786 283.37C272.389 282.763 272.191 281.912 272.191 280.815C272.191 279.275 272.553 277.712 273.276 276.125C273.999 274.515 274.898 273.185 275.971 272.135C277.068 271.085 278.106 270.56 279.086 270.56C279.809 270.56 280.369 270.887 280.766 271.54C281.186 272.17 281.396 273.022 281.396 274.095C281.396 275.495 281.046 277 280.346 278.61C279.669 280.22 278.794 281.573 277.721 282.67C276.671 283.743 275.621 284.28 274.571 284.28ZM275.971 282.425C276.578 282.425 277.138 282.11 277.651 281.48C278.164 280.85 278.573 280.01 278.876 278.96C279.179 277.91 279.331 276.802 279.331 275.635C279.331 273.488 278.771 272.415 277.651 272.415C276.951 272.415 276.344 272.8 275.831 273.57C275.318 274.317 274.921 275.238 274.641 276.335C274.384 277.408 274.256 278.412 274.256 279.345C274.256 280.255 274.384 281.002 274.641 281.585C274.921 282.145 275.364 282.425 275.971 282.425ZM286.98 268.95C286.793 268.95 286.712 268.857 286.735 268.67L287.05 266.71C287.143 266.173 287.342 265.753 287.645 265.45C287.972 265.147 288.368 264.995 288.835 264.995H288.94C289.127 264.995 289.208 265.088 289.185 265.275L288.87 267.235C288.777 267.772 288.567 268.192 288.24 268.495C287.937 268.798 287.552 268.95 287.085 268.95H286.98ZM279.42 295.27C278.557 295.27 277.833 295.083 277.25 294.71C276.643 294.337 276.2 293.882 275.92 293.345C275.64 292.808 275.5 292.318 275.5 291.875C275.5 291.408 275.652 290.988 275.955 290.615C276.235 290.265 276.573 290.008 276.97 289.845L277.18 289.81C277.25 289.81 277.297 289.833 277.32 289.88C277.32 289.95 277.32 290.02 277.32 290.09C277.483 292.703 278.452 294.01 280.225 294.01C280.925 294.01 281.497 293.777 281.94 293.31C282.383 292.867 282.757 292.155 283.06 291.175C283.363 290.218 283.643 288.9 283.9 287.22L285.93 273.955C286 273.558 286.035 273.255 286.035 273.045C286.035 272.765 285.953 272.625 285.79 272.625C285.58 272.625 285.312 272.812 284.985 273.185C284.658 273.535 284.308 274.095 283.935 274.865C283.842 275.075 283.748 275.18 283.655 275.18C283.538 275.18 283.48 275.087 283.48 274.9C283.48 274.457 283.678 273.885 284.075 273.185C284.495 272.485 284.997 271.878 285.58 271.365C286.163 270.828 286.712 270.56 287.225 270.56C287.808 270.56 288.1 270.98 288.1 271.82C288.1 272.03 288.042 272.543 287.925 273.36L286.105 285.54C285.638 288.713 284.833 291.128 283.69 292.785C282.57 294.442 281.147 295.27 279.42 295.27ZM293.003 284.28C292.163 284.28 291.486 283.965 290.973 283.335C290.483 282.682 290.238 281.772 290.238 280.605C290.238 279.205 290.564 277.712 291.218 276.125C291.894 274.538 292.758 273.22 293.808 272.17C294.858 271.097 295.919 270.56 296.993 270.56C297.973 270.56 298.463 271.155 298.463 272.345C298.463 273.792 297.856 275.157 296.643 276.44C295.453 277.723 293.983 278.657 292.233 279.24C292.233 280.243 292.396 280.978 292.723 281.445C293.049 281.888 293.539 282.11 294.193 282.11C294.869 282.11 295.488 281.9 296.048 281.48C296.608 281.037 297.086 280.442 297.483 279.695C297.529 279.578 297.588 279.485 297.658 279.415C297.728 279.322 297.798 279.275 297.868 279.275C298.031 279.275 298.113 279.392 298.113 279.625C298.113 280.138 297.856 280.768 297.343 281.515C296.829 282.262 296.176 282.915 295.383 283.475C294.613 284.012 293.819 284.28 293.003 284.28ZM293.143 277.735C293.609 277.735 294.123 277.56 294.683 277.21C295.243 276.86 295.709 276.382 296.083 275.775C296.479 275.168 296.678 274.492 296.678 273.745C296.678 272.858 296.363 272.415 295.733 272.415C294.986 272.415 294.298 272.987 293.668 274.13C293.061 275.25 292.664 276.417 292.478 277.63C292.594 277.7 292.816 277.735 293.143 277.735ZM302.393 284.28C301.576 284.28 300.97 283.918 300.573 283.195C300.2 282.472 300.013 281.608 300.013 280.605C300.013 279.182 300.351 277.677 301.028 276.09C301.705 274.503 302.591 273.185 303.688 272.135C304.785 271.085 305.916 270.56 307.083 270.56C307.573 270.56 307.97 270.665 308.273 270.875C308.576 271.062 308.728 271.318 308.728 271.645C308.728 271.948 308.611 272.298 308.378 272.695C308.261 272.905 308.145 273.01 308.028 273.01C307.958 273.01 307.888 272.963 307.818 272.87C307.421 272.333 306.908 272.065 306.278 272.065C305.531 272.065 304.831 272.38 304.178 273.01C303.525 273.64 303.011 274.492 302.638 275.565C302.265 276.615 302.078 277.747 302.078 278.96C302.078 281.06 302.661 282.11 303.828 282.11C304.435 282.11 304.948 281.888 305.368 281.445C305.788 281.002 306.196 280.442 306.593 279.765C306.616 279.718 306.663 279.625 306.733 279.485C306.826 279.345 306.931 279.275 307.048 279.275C307.188 279.275 307.258 279.392 307.258 279.625C307.258 280.162 307.001 280.803 306.488 281.55C305.975 282.297 305.333 282.938 304.563 283.475C303.816 284.012 303.093 284.28 302.393 284.28ZM313.214 284.28C312.187 284.28 311.674 283.568 311.674 282.145C311.674 281.678 311.709 281.177 311.779 280.64C311.872 280.08 311.93 279.718 311.954 279.555L313.109 272.31H310.274C310.18 272.31 310.134 272.263 310.134 272.17C310.134 271.983 310.344 271.715 310.764 271.365C311.184 271.015 311.475 270.84 311.639 270.84H313.354L313.634 269.09C313.727 268.483 314.019 267.935 314.509 267.445C314.999 266.955 315.5 266.71 316.014 266.71C316.107 266.71 316.154 266.757 316.154 266.85C316.154 266.92 316.072 267.142 315.909 267.515C315.745 267.865 315.629 268.25 315.559 268.67L315.209 270.84H317.974C318.09 270.84 318.149 270.898 318.149 271.015C318.149 271.155 317.927 271.412 317.484 271.785C317.04 272.135 316.749 272.31 316.609 272.31H315.034L313.879 279.52C313.692 280.687 313.599 281.398 313.599 281.655C313.599 282.285 313.809 282.6 314.229 282.6C314.532 282.6 314.847 282.46 315.174 282.18C315.524 281.877 315.827 281.457 316.084 280.92C316.107 280.897 316.13 280.862 316.154 280.815C316.177 280.768 316.212 280.745 316.259 280.745C316.352 280.745 316.399 280.873 316.399 281.13C316.399 281.503 316.235 281.947 315.909 282.46C315.582 282.95 315.162 283.382 314.649 283.755C314.159 284.105 313.68 284.28 313.214 284.28ZM327.812 284.28C327.555 284.28 327.345 284.187 327.182 284C327.019 283.79 326.937 283.533 326.937 283.23C326.937 282.74 327.147 282.262 327.567 281.795C328.01 281.305 328.442 281.06 328.862 281.06C329.119 281.06 329.329 281.165 329.492 281.375C329.655 281.562 329.737 281.807 329.737 282.11C329.737 282.6 329.527 283.09 329.107 283.58C328.687 284.047 328.255 284.28 327.812 284.28ZM340.8 284C340.684 284 340.625 283.93 340.625 283.79C340.625 283.393 340.835 283.008 341.255 282.635C341.722 282.192 342.049 281.772 342.235 281.375C342.422 280.978 342.609 280.208 342.795 279.065L344.895 266.185H344.755C343.869 266.185 343.192 266.278 342.725 266.465C342.259 266.652 341.909 266.85 341.675 267.06C341.442 267.247 341.29 267.34 341.22 267.34C341.104 267.34 341.045 267.258 341.045 267.095C341.045 266.955 341.069 266.815 341.115 266.675C341.325 266.022 341.839 265.485 342.655 265.065C343.472 264.622 344.58 264.4 345.98 264.4C346.447 264.4 347.264 264.447 348.43 264.54C349.644 264.633 350.554 264.68 351.16 264.68C352.257 264.68 353.062 264.587 353.575 264.4C354.089 264.213 354.38 264.12 354.45 264.12C354.59 264.12 354.66 264.19 354.66 264.33C354.66 264.563 354.509 264.843 354.205 265.17C353.925 265.473 353.482 265.753 352.875 266.01C352.269 266.243 351.522 266.36 350.635 266.36C350.075 266.36 349.48 266.325 348.85 266.255C348.617 266.232 348.337 266.208 348.01 266.185C347.707 266.162 347.369 266.15 346.995 266.15L345.91 272.975H351.195C351.359 272.975 351.44 273.033 351.44 273.15C351.44 273.29 351.324 273.523 351.09 273.85C350.857 274.153 350.565 274.433 350.215 274.69C349.865 274.923 349.527 275.04 349.2 275.04C349.014 275.04 348.78 275.005 348.5 274.935C347.73 274.772 347.1 274.69 346.61 274.69H345.665L344.72 280.22C344.674 280.547 344.58 280.862 344.44 281.165C344.324 281.468 344.207 281.69 344.09 281.83V281.865C344.977 282.098 345.98 282.215 347.1 282.215C348.804 282.215 350.297 281.807 351.58 280.99C351.744 280.897 351.86 280.85 351.93 280.85C352.07 280.85 352.14 280.943 352.14 281.13C352.14 281.527 351.884 281.947 351.37 282.39C350.88 282.833 350.227 283.218 349.41 283.545C348.617 283.848 347.812 284 346.995 284C346.435 284 345.572 283.907 344.405 283.72C343.425 283.58 342.819 283.51 342.585 283.51C342.189 283.51 341.815 283.592 341.465 283.755C341.115 283.918 340.894 284 340.8 284ZM357.39 284.28C357.157 284.28 357.017 284.187 356.97 284C356.924 283.813 356.889 283.347 356.865 282.6C356.865 281.317 356.795 279.788 356.655 278.015C356.492 276.078 356.282 274.713 356.025 273.92C355.792 273.127 355.5 272.73 355.15 272.73C354.917 272.73 354.742 272.847 354.625 273.08C354.509 273.313 354.357 273.722 354.17 274.305C354.147 274.422 354.1 274.538 354.03 274.655C353.984 274.748 353.914 274.795 353.82 274.795C353.68 274.795 353.61 274.655 353.61 274.375C353.61 273.908 353.715 273.372 353.925 272.765C354.159 272.158 354.462 271.645 354.835 271.225C355.232 270.782 355.664 270.56 356.13 270.56C356.994 270.56 357.6 271.167 357.95 272.38C358.3 273.593 358.557 275.203 358.72 277.21C358.814 278.377 358.872 279.228 358.895 279.765C358.919 280.278 358.942 280.617 358.965 280.78C358.989 281.107 359.07 281.27 359.21 281.27C359.584 281.27 360.05 280.873 360.61 280.08C361.17 279.287 361.66 278.353 362.08 277.28C362.5 276.207 362.71 275.297 362.71 274.55C362.71 274.2 362.664 273.92 362.57 273.71C362.5 273.5 362.384 273.302 362.22 273.115C362.08 272.905 362.01 272.742 362.01 272.625C362.01 272.345 362.232 271.937 362.675 271.4C363.142 270.84 363.492 270.56 363.725 270.56C363.912 270.56 364.087 270.735 364.25 271.085C364.437 271.412 364.53 271.843 364.53 272.38C364.53 273.617 364.11 275.192 363.27 277.105C362.43 279.018 361.439 280.698 360.295 282.145C359.152 283.568 358.184 284.28 357.39 284.28ZM368.301 284.28C367.461 284.28 366.784 283.965 366.271 283.335C365.781 282.682 365.536 281.772 365.536 280.605C365.536 279.205 365.862 277.712 366.516 276.125C367.192 274.538 368.056 273.22 369.106 272.17C370.156 271.097 371.217 270.56 372.291 270.56C373.271 270.56 373.761 271.155 373.761 272.345C373.761 273.792 373.154 275.157 371.941 276.44C370.751 277.723 369.281 278.657 367.531 279.24C367.531 280.243 367.694 280.978 368.021 281.445C368.347 281.888 368.837 282.11 369.491 282.11C370.167 282.11 370.786 281.9 371.346 281.48C371.906 281.037 372.384 280.442 372.781 279.695C372.827 279.578 372.886 279.485 372.956 279.415C373.026 279.322 373.096 279.275 373.166 279.275C373.329 279.275 373.411 279.392 373.411 279.625C373.411 280.138 373.154 280.768 372.641 281.515C372.127 282.262 371.474 282.915 370.681 283.475C369.911 284.012 369.117 284.28 368.301 284.28ZM368.441 277.735C368.907 277.735 369.421 277.56 369.981 277.21C370.541 276.86 371.007 276.382 371.381 275.775C371.777 275.168 371.976 274.492 371.976 273.745C371.976 272.858 371.661 272.415 371.031 272.415C370.284 272.415 369.596 272.987 368.966 274.13C368.359 275.25 367.962 276.417 367.776 277.63C367.892 277.7 368.114 277.735 368.441 277.735ZM376.16 284.28C375.997 284.28 375.915 284.233 375.915 284.14C375.915 284.093 375.973 283.977 376.09 283.79C376.207 283.58 376.288 283.312 376.335 282.985L376.72 280.85C377.023 279.147 377.292 277.607 377.525 276.23C377.758 274.853 377.875 273.92 377.875 273.43C377.875 273.127 377.852 272.917 377.805 272.8C377.782 272.683 377.7 272.625 377.56 272.625C377.397 272.625 377.175 272.765 376.895 273.045C376.615 273.325 376.37 273.652 376.16 274.025C376.067 274.188 375.985 274.34 375.915 274.48C375.845 274.597 375.775 274.69 375.705 274.76C375.658 274.807 375.612 274.83 375.565 274.83C375.425 274.83 375.355 274.725 375.355 274.515C375.355 274.165 375.553 273.675 375.95 273.045C376.37 272.392 376.848 271.82 377.385 271.33C377.945 270.817 378.447 270.56 378.89 270.56C379.24 270.56 379.485 270.7 379.625 270.98C379.765 271.26 379.835 271.703 379.835 272.31C379.835 273.103 379.66 274.223 379.31 275.67H379.345C381.142 272.263 382.798 270.56 384.315 270.56C384.735 270.56 385.05 270.677 385.26 270.91C385.47 271.12 385.575 271.423 385.575 271.82C385.575 272.427 385.388 273.045 385.015 273.675C384.642 274.282 384.292 274.585 383.965 274.585C383.872 274.585 383.813 274.562 383.79 274.515C383.79 274.445 383.802 274.375 383.825 274.305C383.872 273.978 383.895 273.78 383.895 273.71C383.895 273.243 383.65 273.01 383.16 273.01C382.577 273.01 381.993 273.348 381.41 274.025C380.827 274.702 380.313 275.53 379.87 276.51C379.45 277.49 379.147 278.388 378.96 279.205C378.75 280.068 378.61 280.967 378.54 281.9C378.517 282.25 378.353 282.612 378.05 282.985C377.747 283.358 377.408 283.673 377.035 283.93C376.662 284.163 376.37 284.28 376.16 284.28ZM387.201 295.27C386.128 295.27 385.299 294.85 384.716 294.01C384.133 293.17 383.841 292.237 383.841 291.21C383.841 290.58 383.958 290.078 384.191 289.705C384.401 289.355 384.646 289.11 384.926 288.97C385.183 288.83 385.381 288.76 385.521 288.76C385.614 288.76 385.661 288.853 385.661 289.04C385.661 291.98 386.594 293.45 388.461 293.45C389.814 293.45 390.864 292.657 391.611 291.07C391.891 290.463 392.148 289.693 392.381 288.76C392.614 287.85 392.929 286.462 393.326 284.595L393.676 282.915L394.516 279.03H394.481C394.038 279.963 393.501 280.838 392.871 281.655C392.241 282.448 391.623 283.09 391.016 283.58C390.433 284.047 389.954 284.28 389.581 284.28C389.161 284.28 388.869 283.965 388.706 283.335C388.543 282.705 388.473 281.935 388.496 281.025L388.741 273.99C388.764 273.453 388.753 273.068 388.706 272.835C388.659 272.578 388.519 272.45 388.286 272.45C388.029 272.45 387.749 272.613 387.446 272.94C387.166 273.243 386.909 273.652 386.676 274.165C386.536 274.492 386.408 274.655 386.291 274.655C386.151 274.655 386.081 274.538 386.081 274.305C386.081 273.838 386.244 273.313 386.571 272.73C386.921 272.123 387.353 271.61 387.866 271.19C388.379 270.77 388.869 270.56 389.336 270.56C389.873 270.56 390.234 270.828 390.421 271.365C390.608 271.878 390.701 272.567 390.701 273.43L390.666 274.41L390.421 279.065C390.374 280.045 390.386 280.733 390.456 281.13C390.549 281.503 390.724 281.69 390.981 281.69C391.401 281.69 391.891 281.293 392.451 280.5C393.011 279.707 393.536 278.738 394.026 277.595C394.539 276.452 394.924 275.378 395.181 274.375L395.601 272.66C395.764 271.96 396.091 271.435 396.581 271.085C397.071 270.735 397.514 270.56 397.911 270.56C398.051 270.56 398.121 270.607 398.121 270.7C398.121 270.817 398.039 271.073 397.876 271.47C397.643 272.077 397.398 273.057 397.141 274.41L395.636 282.425C395.589 282.682 395.508 283.16 395.391 283.86C395.134 285.283 394.913 286.368 394.726 287.115C394.563 287.862 394.306 288.608 393.956 289.355C393.629 290.125 393.151 290.907 392.521 291.7C391.681 292.82 390.794 293.695 389.861 294.325C388.928 294.955 388.041 295.27 387.201 295.27ZM411.319 284.035C411.226 284.035 411.179 283.977 411.179 283.86C411.179 283.697 411.249 283.498 411.389 283.265C411.553 283.008 411.716 282.81 411.879 282.67C412.323 282.273 412.638 281.9 412.824 281.55C413.034 281.177 413.233 280.465 413.419 279.415L415.694 266.29H413.769C412.393 266.29 411.436 266.453 410.899 266.78C410.386 267.083 410.129 267.632 410.129 268.425C410.129 268.962 410.211 269.405 410.374 269.755C410.561 270.105 410.654 270.315 410.654 270.385C410.654 270.618 410.456 271.003 410.059 271.54C409.686 272.077 409.383 272.345 409.149 272.345C409.079 272.345 409.021 272.31 408.974 272.24C408.834 272.007 408.718 271.703 408.624 271.33C408.554 270.933 408.519 270.537 408.519 270.14C408.519 268.437 409.138 267.06 410.374 266.01C411.634 264.937 413.303 264.4 415.379 264.4H420.244C421.668 264.4 422.624 264.248 423.114 263.945C423.628 263.618 423.884 263.082 423.884 262.335C423.884 261.775 423.791 261.332 423.604 261.005C423.441 260.655 423.359 260.445 423.359 260.375C423.359 260.165 423.546 259.792 423.919 259.255C424.316 258.695 424.631 258.415 424.864 258.415C424.958 258.415 425.016 258.45 425.039 258.52C425.366 259.08 425.529 259.815 425.529 260.725C425.529 262.405 424.899 263.758 423.639 264.785C422.403 265.788 420.734 266.29 418.634 266.29H417.759L415.274 280.85C415.228 281.153 415.158 281.398 415.064 281.585C414.971 281.748 414.843 281.935 414.679 282.145V282.18C415.006 282.32 415.379 282.39 415.799 282.39C416.056 282.39 416.301 282.343 416.534 282.25C416.768 282.157 416.919 282.11 416.989 282.11C417.106 282.11 417.164 282.157 417.164 282.25C417.164 282.39 417.083 282.553 416.919 282.74C416.523 283.207 416.173 283.545 415.869 283.755C415.589 283.942 415.321 284.035 415.064 284.035C414.784 284.035 414.434 283.953 414.014 283.79C413.501 283.65 413.139 283.58 412.929 283.58C412.673 283.58 412.358 283.662 411.984 283.825C411.634 283.965 411.413 284.035 411.319 284.035ZM425.339 268.95C425.153 268.95 425.071 268.857 425.094 268.67L425.409 266.71C425.503 266.173 425.701 265.753 426.004 265.45C426.331 265.147 426.728 264.995 427.194 264.995H427.299C427.486 264.995 427.568 265.088 427.544 265.275L427.229 267.235C427.136 267.772 426.926 268.192 426.599 268.495C426.296 268.798 425.911 268.95 425.444 268.95H425.339ZM423.659 284.28C423.053 284.28 422.749 283.848 422.749 282.985C422.749 282.612 422.808 282.11 422.924 281.48L424.289 273.955C424.359 273.558 424.394 273.255 424.394 273.045C424.394 272.765 424.313 272.625 424.149 272.625C423.939 272.625 423.671 272.812 423.344 273.185C423.018 273.535 422.668 274.095 422.294 274.865C422.201 275.075 422.108 275.18 422.014 275.18C421.898 275.18 421.839 275.087 421.839 274.9C421.839 274.457 422.038 273.885 422.434 273.185C422.854 272.485 423.356 271.878 423.939 271.365C424.523 270.828 425.071 270.56 425.584 270.56C426.168 270.56 426.459 270.98 426.459 271.82C426.459 272.03 426.401 272.543 426.284 273.36L424.814 281.515C424.791 281.608 424.779 281.725 424.779 281.865C424.779 282.075 424.861 282.18 425.024 282.18C425.258 282.18 425.526 281.993 425.829 281.62C426.156 281.247 426.506 280.698 426.879 279.975C426.996 279.765 427.089 279.66 427.159 279.66C427.276 279.66 427.334 279.777 427.334 280.01C427.334 280.453 427.124 281.025 426.704 281.725C426.308 282.402 425.818 282.997 425.234 283.51C424.674 284.023 424.149 284.28 423.659 284.28ZM430.126 284.28C429.963 284.28 429.881 284.222 429.881 284.105C429.881 284.035 429.916 283.895 429.986 283.685C430.08 283.452 430.208 282.997 430.371 282.32C430.581 281.457 430.78 280.418 430.966 279.205C431.176 277.992 431.421 276.417 431.701 274.48C431.818 273.71 431.876 273.22 431.876 273.01C431.876 272.753 431.818 272.625 431.701 272.625C431.515 272.625 431.316 272.765 431.106 273.045C430.896 273.325 430.616 273.745 430.266 274.305C430.173 274.468 430.091 274.62 430.021 274.76C429.951 274.877 429.881 274.97 429.811 275.04C429.765 275.087 429.718 275.11 429.671 275.11C429.531 275.11 429.461 275.005 429.461 274.795C429.461 274.422 429.66 273.897 430.056 273.22C430.476 272.52 430.966 271.902 431.526 271.365C432.086 270.828 432.6 270.56 433.066 270.56C433.626 270.56 433.906 271.038 433.906 271.995C433.906 272.578 433.801 273.5 433.591 274.76L433.486 275.495H433.521C434.431 273.862 435.318 272.637 436.181 271.82C437.068 270.98 437.908 270.56 438.701 270.56C439.075 270.56 439.343 270.677 439.506 270.91C439.693 271.143 439.786 271.54 439.786 272.1C439.786 272.683 439.705 273.418 439.541 274.305L439.401 275.11H439.436C440.276 273.617 441.128 272.485 441.991 271.715C442.855 270.945 443.625 270.56 444.301 270.56C445.095 270.56 445.491 271.132 445.491 272.275C445.491 272.648 445.41 273.325 445.246 274.305C445.223 274.468 445.013 275.53 444.616 277.49C444.126 279.987 443.881 281.41 443.881 281.76C443.881 282.11 444.021 282.285 444.301 282.285C444.605 282.285 444.885 282.075 445.141 281.655C445.421 281.235 445.713 280.675 446.016 279.975C446.133 279.765 446.226 279.66 446.296 279.66C446.413 279.66 446.471 279.765 446.471 279.975C446.471 280.162 446.46 280.313 446.436 280.43C446.296 281.107 446.028 281.748 445.631 282.355C445.235 282.938 444.78 283.405 444.266 283.755C443.776 284.105 443.321 284.28 442.901 284.28C442.481 284.28 442.201 284.117 442.061 283.79C441.921 283.44 441.863 283.043 441.886 282.6C441.91 281.76 442.143 280.278 442.586 278.155C442.633 277.945 442.75 277.327 442.936 276.3C443.146 275.273 443.275 274.398 443.321 273.675C443.321 273.348 443.286 273.115 443.216 272.975C443.17 272.812 443.03 272.73 442.796 272.73C442.143 272.73 441.408 273.383 440.591 274.69C439.775 275.973 439.168 277.338 438.771 278.785L437.896 283.265C437.873 283.498 437.651 283.732 437.231 283.965C436.835 284.175 436.52 284.28 436.286 284.28C436.03 284.28 435.901 284.163 435.901 283.93C436.951 278.727 437.523 275.308 437.616 273.675V273.36C437.616 273.15 437.581 272.998 437.511 272.905C437.465 272.788 437.348 272.73 437.161 272.73C436.648 272.73 436.076 273.127 435.446 273.92C434.816 274.69 434.256 275.635 433.766 276.755C433.276 277.875 432.95 278.89 432.786 279.8L432.331 282.25C432.238 282.74 431.946 283.207 431.456 283.65C430.966 284.07 430.523 284.28 430.126 284.28ZM451.186 284.28C450.346 284.28 449.67 283.965 449.156 283.335C448.666 282.682 448.421 281.772 448.421 280.605C448.421 279.205 448.748 277.712 449.401 276.125C450.078 274.538 450.941 273.22 451.991 272.17C453.041 271.097 454.103 270.56 455.176 270.56C456.156 270.56 456.646 271.155 456.646 272.345C456.646 273.792 456.04 275.157 454.826 276.44C453.636 277.723 452.166 278.657 450.416 279.24C450.416 280.243 450.58 280.978 450.906 281.445C451.233 281.888 451.723 282.11 452.376 282.11C453.053 282.11 453.671 281.9 454.231 281.48C454.791 281.037 455.27 280.442 455.666 279.695C455.713 279.578 455.771 279.485 455.841 279.415C455.911 279.322 455.981 279.275 456.051 279.275C456.215 279.275 456.296 279.392 456.296 279.625C456.296 280.138 456.04 280.768 455.526 281.515C455.013 282.262 454.36 282.915 453.566 283.475C452.796 284.012 452.003 284.28 451.186 284.28ZM451.326 277.735C451.793 277.735 452.306 277.56 452.866 277.21C453.426 276.86 453.893 276.382 454.266 275.775C454.663 275.168 454.861 274.492 454.861 273.745C454.861 272.858 454.546 272.415 453.916 272.415C453.17 272.415 452.481 272.987 451.851 274.13C451.245 275.25 450.848 276.417 450.661 277.63C450.778 277.7 451 277.735 451.326 277.735ZM458.652 284.28C458.395 284.28 458.185 284.187 458.022 284C457.858 283.79 457.777 283.533 457.777 283.23C457.777 282.74 457.987 282.262 458.407 281.795C458.85 281.305 459.282 281.06 459.702 281.06C459.958 281.06 460.168 281.165 460.332 281.375C460.495 281.562 460.577 281.807 460.577 282.11C460.577 282.6 460.367 283.09 459.947 283.58C459.527 284.047 459.095 284.28 458.652 284.28Z" fill="black"/>
</svg>
