<svg width="345" height="242" viewBox="0 0 345 242" fill="none" xmlns="http://www.w3.org/2000/svg">
<line x1="93.5807" y1="7.40619" x2="342.581" y2="114.406" stroke="black" stroke-width="10"/>
<line x1="308.606" y1="95.9537" x2="309.569" y2="199.954" stroke="black" stroke-width="10"/>
<line x1="314.607" y1="200" x2="97.6066" y2="200" stroke="black" stroke-width="10"/>
<line x1="144.107" y1="29" x2="144.107" y2="3.27835e-07" stroke="black" stroke-width="15"/>
<path d="M150.887 149H137.351V130.424C137.351 129.224 137.111 128.288 136.631 127.616C136.199 126.944 135.671 126.608 135.047 126.608C134.423 126.608 133.871 126.944 133.391 127.616C132.959 128.288 132.743 129.224 132.743 130.424V149H119.423V130.424C119.423 129.272 119.183 128.384 118.703 127.76C118.271 127.088 117.719 126.752 117.047 126.752C116.423 126.752 115.895 127.064 115.463 127.688C115.031 128.312 114.815 129.224 114.815 130.424V149H101.567V126.464C101.567 122.72 102.911 119.456 105.599 116.672C108.335 113.84 111.599 112.424 115.391 112.424C117.551 112.424 119.471 112.856 121.151 113.72C122.879 114.536 124.583 115.784 126.263 117.464C127.847 115.88 129.407 114.68 130.943 113.864C132.767 112.904 134.663 112.424 136.631 112.424C141.143 112.424 144.695 114.008 147.287 117.176C149.687 120.104 150.887 123.872 150.887 128.48V149ZM194.155 149H180.403V132.44C180.403 130.904 179.947 129.56 179.035 128.408C178.123 127.256 176.899 126.68 175.363 126.68C174.019 126.68 172.819 127.184 171.763 128.192C170.755 129.152 170.251 130.304 170.251 131.648C170.251 133.04 170.707 134.24 171.619 135.248C172.531 136.256 173.683 136.76 175.075 136.76C176.419 136.76 177.619 136.376 178.675 135.608V149.432C178.291 149.528 177.763 149.576 177.091 149.576C176.419 149.624 175.771 149.672 175.147 149.72C174.667 149.768 174.307 149.792 174.067 149.792C169.603 149.792 165.595 147.824 162.043 143.888C158.539 139.904 156.787 135.44 156.787 130.496C156.787 125.504 158.611 121.256 162.259 117.752C165.955 114.2 170.323 112.424 175.363 112.424C180.499 112.424 184.915 114.224 188.611 117.824C192.307 121.424 194.155 125.792 194.155 130.928V149ZM237.107 145.544C237.107 150.968 235.115 155.672 231.131 159.656C227.147 163.64 222.419 165.632 216.947 165.632C216.179 165.632 215.267 165.536 214.211 165.344C213.155 165.2 211.835 164.864 210.251 164.336V152.096C211.067 152.528 211.835 152.864 212.555 153.104C213.323 153.344 214.139 153.464 215.003 153.464C217.307 153.464 219.275 152.696 220.907 151.16C222.587 149.672 223.427 147.8 223.427 145.544V130.784C223.427 129.152 223.019 127.808 222.203 126.752C221.387 125.696 220.163 125.168 218.531 125.168C217.283 125.168 216.155 125.672 215.147 126.68C214.187 127.64 213.707 128.768 213.707 130.064C213.707 131.456 214.163 132.632 215.075 133.592C215.987 134.552 217.139 135.032 218.531 135.032C219.443 135.032 220.331 134.744 221.195 134.168V146.552C220.187 146.888 219.227 147.152 218.315 147.344C217.451 147.536 216.539 147.632 215.579 147.632C210.875 147.632 207.107 145.928 204.275 142.52C201.491 139.112 200.099 135.032 200.099 130.28C200.099 125.432 201.899 121.256 205.499 117.752C209.147 114.2 213.395 112.424 218.243 112.424C223.379 112.424 227.795 114.224 231.491 117.824C235.235 121.376 237.107 125.696 237.107 130.784V145.544ZM280.214 130.712L280.142 133.232H259.118C259.07 133.04 258.974 132.68 258.83 132.152C258.734 131.576 258.686 131.048 258.686 130.568C258.686 129.272 258.902 128.048 259.334 126.896H266.678C266.438 125.696 265.91 124.736 265.094 124.016C264.278 123.296 263.27 122.936 262.07 122.936C260.15 122.936 258.686 123.704 257.678 125.24C256.67 126.776 256.166 128.528 256.166 130.496C256.166 132.464 256.622 134.192 257.534 135.68C258.638 137.456 260.102 138.344 261.926 138.344C262.742 138.344 263.438 138.176 264.014 137.84C264.638 137.504 265.286 137 265.958 136.328L273.662 145.544C270.11 148.328 266.126 149.72 261.71 149.72C256.478 149.72 252.038 147.848 248.39 144.104C244.742 140.36 242.918 135.872 242.918 130.64C242.918 125.744 244.766 121.496 248.462 117.896C252.206 114.248 256.55 112.424 261.494 112.424C266.534 112.424 270.902 114.272 274.598 117.968C278.342 121.616 280.214 125.864 280.214 130.712Z" fill="#002487"/>
<rect x="47.1066" y="69.5" width="50" height="133" fill="#002487" stroke="#002487"/>
<rect x="35.1066" y="203.5" width="76" height="14" fill="#002487" stroke="#002487"/>
<path d="M97.6066 103.5L10.1066 103.5L97.6066 22.5L97.6066 103.5Z" fill="#002487"/>
<path d="M124.167 225.208C124.167 227.032 124.659 228.448 125.643 229.456C126.627 230.44 127.875 230.932 129.387 230.932C131.091 230.932 132.351 230.476 133.167 229.564C133.983 228.628 134.391 227.2 134.391 225.28H139.467C139.467 227.392 139.035 229.216 138.171 230.752C137.331 232.264 136.167 233.416 134.679 234.208C133.191 234.976 131.511 235.36 129.639 235.36H129.135C127.071 235.36 125.223 234.94 123.591 234.1C121.959 233.26 120.675 232.024 119.739 230.392C118.803 228.736 118.335 226.744 118.335 224.416V220.888C118.335 218.632 118.803 216.676 119.739 215.02C120.675 213.364 121.947 212.104 123.555 211.24C125.187 210.376 126.999 209.944 128.991 209.944H129.495C131.415 209.944 133.119 210.328 134.607 211.096C136.119 211.84 137.307 212.98 138.171 214.516C139.035 216.028 139.467 217.888 139.467 220.096H134.175C134.175 218.224 133.755 216.808 132.915 215.848C132.099 214.864 130.911 214.372 129.351 214.372C127.839 214.372 126.591 214.876 125.607 215.884C124.647 216.868 124.167 218.272 124.167 220.096V225.208ZM161.305 226.324C161.305 228.172 160.909 229.78 160.117 231.148C159.349 232.516 158.281 233.56 156.913 234.28C155.545 235 154.009 235.36 152.305 235.36H151.729C150.025 235.36 148.489 235 147.121 234.28C145.753 233.56 144.673 232.516 143.881 231.148C143.113 229.78 142.729 228.172 142.729 226.324V225.28C142.729 223.432 143.113 221.824 143.881 220.456C144.673 219.088 145.753 218.044 147.121 217.324C148.489 216.604 150.025 216.244 151.729 216.244H152.305C154.009 216.244 155.545 216.604 156.913 217.324C158.281 218.044 159.349 219.088 160.117 220.456C160.909 221.824 161.305 223.432 161.305 225.28V226.324ZM155.977 224.344C155.977 222.88 155.605 221.764 154.861 220.996C154.141 220.228 153.193 219.844 152.017 219.844C150.841 219.844 149.881 220.228 149.137 220.996C148.417 221.764 148.057 222.88 148.057 224.344V227.26C148.057 228.724 148.417 229.84 149.137 230.608C149.881 231.376 150.841 231.76 152.017 231.76C153.193 231.76 154.141 231.376 154.861 230.608C155.605 229.84 155.977 228.724 155.977 227.26V224.344ZM169.713 219.304C171.225 217.264 173.181 216.244 175.581 216.244C177.453 216.244 178.989 216.748 180.189 217.756C181.413 218.764 182.025 220.228 182.025 222.148V235H176.769V223.3C176.769 222.364 176.493 221.596 175.941 220.996C175.413 220.372 174.729 220.06 173.889 220.06C172.953 220.06 172.149 220.42 171.477 221.14C170.805 221.836 170.469 222.688 170.469 223.696V235H165.213V216.604H169.137L169.713 219.304ZM196.666 234.676C196.186 234.868 195.55 235.024 194.758 235.144C193.99 235.288 193.306 235.36 192.706 235.36C190.858 235.36 189.466 234.964 188.53 234.172C187.594 233.38 187.126 232.06 187.126 230.212V220.204H185.11V216.604H187.306L189.142 210.736H192.382V216.604H196.666V220.204H192.382V229.312C192.382 230.272 192.562 230.92 192.922 231.256C193.306 231.592 193.81 231.76 194.434 231.76C194.722 231.76 195.094 231.712 195.55 231.616C196.006 231.52 196.378 231.412 196.666 231.292V234.676ZM210.385 222.904C210.385 222.16 210.181 221.524 209.773 220.996C209.365 220.444 208.717 220.168 207.829 220.168C206.989 220.168 206.341 220.504 205.885 221.176C205.453 221.824 205.237 222.64 205.237 223.624V235H200.053V216.604H203.941L204.589 219.304C204.685 219.04 204.925 218.668 205.309 218.188C205.717 217.708 206.293 217.264 207.037 216.856C207.805 216.448 208.705 216.244 209.737 216.244C211.393 216.244 212.665 216.76 213.553 217.792C214.465 218.824 214.921 220.192 214.921 221.896C214.921 222.256 214.897 222.616 214.849 222.976C214.825 223.336 214.801 223.588 214.777 223.732H210.385V222.904ZM228.934 222.58C228.934 221.764 228.67 221.104 228.142 220.6C227.638 220.096 226.81 219.844 225.658 219.844C224.986 219.844 224.41 219.964 223.93 220.204C223.45 220.42 223.078 220.696 222.814 221.032C222.574 221.368 222.454 221.68 222.454 221.968V222.256H217.378C217.33 221.968 217.306 221.752 217.306 221.608C217.306 220.576 217.642 219.652 218.314 218.836C219.01 218.02 219.97 217.384 221.194 216.928C222.418 216.472 223.822 216.244 225.406 216.244H226.162C228.754 216.244 230.722 216.76 232.066 217.792C233.41 218.8 234.082 220.192 234.082 221.968V230.464C234.082 230.896 234.178 231.22 234.37 231.436C234.586 231.652 234.838 231.76 235.126 231.76C235.366 231.76 235.63 231.712 235.918 231.616C236.206 231.52 236.434 231.436 236.602 231.364V234.604C235.714 235.108 234.658 235.36 233.434 235.36C232.114 235.36 231.106 235.096 230.41 234.568C229.714 234.016 229.306 233.248 229.186 232.264C227.506 234.328 225.442 235.36 222.994 235.36C221.17 235.36 219.67 234.988 218.494 234.244C217.318 233.5 216.73 232.084 216.73 229.996C216.73 228.292 217.21 226.996 218.17 226.108C219.154 225.196 220.51 224.584 222.238 224.272C223.966 223.96 226.198 223.804 228.934 223.804V222.58ZM228.934 226.756C226.654 226.756 224.95 226.984 223.822 227.44C222.718 227.872 222.166 228.592 222.166 229.6C222.166 230.392 222.382 230.956 222.814 231.292C223.27 231.604 223.954 231.76 224.866 231.76C225.49 231.76 226.114 231.592 226.738 231.256C227.362 230.92 227.878 230.44 228.286 229.816C228.718 229.192 228.934 228.496 228.934 227.728V226.756ZM243.682 227.548C243.682 228.748 243.994 229.756 244.618 230.572C245.242 231.364 246.082 231.76 247.138 231.76C248.242 231.76 249.106 231.424 249.73 230.752C250.378 230.056 250.702 229.036 250.702 227.692H255.67C255.67 229.396 255.298 230.824 254.554 231.976C253.834 233.128 252.874 233.98 251.674 234.532C250.474 235.084 249.154 235.36 247.714 235.36H247.138C244.45 235.36 242.314 234.568 240.73 232.984C239.146 231.376 238.354 229.156 238.354 226.324V225.28C238.354 223.408 238.726 221.8 239.47 220.456C240.238 219.088 241.282 218.044 242.602 217.324C243.922 216.604 245.434 216.244 247.138 216.244H247.714C249.13 216.244 250.438 216.556 251.638 217.18C252.862 217.78 253.834 218.668 254.554 219.844C255.298 220.996 255.67 222.364 255.67 223.948H250.45C250.45 222.7 250.174 221.704 249.622 220.96C249.07 220.216 248.254 219.844 247.174 219.844C246.094 219.844 245.242 220.276 244.618 221.14C243.994 221.98 243.682 223.048 243.682 224.344V227.548ZM269.58 234.676C269.1 234.868 268.464 235.024 267.672 235.144C266.904 235.288 266.22 235.36 265.62 235.36C263.772 235.36 262.38 234.964 261.444 234.172C260.508 233.38 260.04 232.06 260.04 230.212V220.204H258.024V216.604H260.22L262.056 210.736H265.296V216.604H269.58V220.204H265.296V229.312C265.296 230.272 265.476 230.92 265.836 231.256C266.22 231.592 266.724 231.76 267.348 231.76C267.636 231.76 268.008 231.712 268.464 231.616C268.92 231.52 269.292 231.412 269.58 231.292V234.676ZM272.931 209.08H278.259V213.22H272.931V209.08ZM272.967 235V216.604H278.223V235H272.967ZM287.487 219.304C288.999 217.264 290.955 216.244 293.355 216.244C295.227 216.244 296.763 216.748 297.963 217.756C299.187 218.764 299.799 220.228 299.799 222.148V235H294.543V223.3C294.543 222.364 294.267 221.596 293.715 220.996C293.187 220.372 292.503 220.06 291.663 220.06C290.727 220.06 289.923 220.42 289.251 221.14C288.579 221.836 288.243 222.688 288.243 223.696V235H282.987V216.604H286.911L287.487 219.304ZM317.103 230.824C318.783 230.824 320.067 231.304 320.955 232.264C321.867 233.2 322.323 234.436 322.323 235.972C322.323 237.076 322.011 238.072 321.387 238.96C320.763 239.848 319.911 240.532 318.831 241.012C317.775 241.516 316.599 241.768 315.303 241.768H307.707C306.243 241.768 305.007 241.36 303.999 240.544C303.015 239.752 302.523 238.648 302.523 237.232C302.523 236.368 302.775 235.588 303.279 234.892C303.807 234.172 304.467 233.632 305.259 233.272C304.707 232.912 304.287 232.468 303.999 231.94C303.711 231.412 303.567 230.836 303.567 230.212C303.567 229.324 303.855 228.556 304.431 227.908C305.007 227.236 305.751 226.756 306.663 226.468C305.847 225.964 305.211 225.328 304.755 224.56C304.299 223.768 304.071 222.928 304.071 222.04C304.071 220.336 304.731 218.944 306.051 217.864C307.395 216.784 309.351 216.244 311.919 216.244H312.495C313.623 216.244 314.631 216.388 315.519 216.676C316.503 216.1 317.187 215.512 317.571 214.912C317.955 214.312 318.171 213.772 318.219 213.292H322.323C322.323 215.836 321.051 217.42 318.507 218.044L318.471 218.152C319.743 219.232 320.379 220.528 320.379 222.04C320.379 223.096 320.079 224.068 319.479 224.956C318.879 225.82 318.027 226.516 316.923 227.044C315.843 227.548 314.595 227.8 313.179 227.8H310.695C309.975 227.8 309.411 227.956 309.003 228.268C308.619 228.58 308.427 228.928 308.427 229.312C308.427 229.792 308.607 230.164 308.967 230.428C309.351 230.692 309.927 230.824 310.695 230.824H317.103ZM309.111 222.04C309.111 222.88 309.411 223.54 310.011 224.02C310.611 224.476 311.367 224.704 312.279 224.704C313.215 224.704 313.983 224.476 314.583 224.02C315.183 223.54 315.483 222.88 315.483 222.04C315.483 221.2 315.183 220.552 314.583 220.096C313.983 219.616 313.215 219.376 312.279 219.376C311.367 219.376 310.611 219.616 310.011 220.096C309.411 220.552 309.111 221.2 309.111 222.04ZM315.159 238.528C315.783 238.528 316.323 238.336 316.779 237.952C317.235 237.592 317.463 237.16 317.463 236.656C317.463 236.176 317.271 235.768 316.887 235.432C316.503 235.12 315.999 234.964 315.375 234.964H309.111C308.583 234.964 308.127 235.132 307.743 235.468C307.359 235.828 307.167 236.248 307.167 236.728C307.167 237.208 307.359 237.628 307.743 237.988C308.127 238.348 308.583 238.528 309.111 238.528H315.159Z" fill="#9B7400"/>
</svg>
